<svg xmlns="http://www.w3.org/2000/svg" viewBox="0 0 50 50" width="24" height="24">
  <g fill="#fff">
    <path fill-rule="evenodd" clip-rule="evenodd" d="M9.984,20.566c3.479-4.33,10.235-3.649,15.025-2.623
      c4.783-1.024,11.533-1.709,15.009,2.614c2.166,2.694,2.529,6.738,1.698,10.866c-0.858,4.268-2.985,8.579-5.736,11.642
      c-3.111,3.463-6.601,5.31-10.998,3.032c-4.386,2.273-7.869,0.438-10.974-3.017c-2.691-2.995-4.783-7.2-5.672-11.391
      C7.584,28.023,7.51,23.646,9.984,20.566 M21.347,5.778c1.457,1.029,2.294,2.469,2.374,4.516c-2.329,0.008-4.142-0.709-5.536-1.832
      c-1.593-1.282-2.692-3.11-3.424-5.021C17.547,3.961,19.795,4.68,21.347,5.778z M19.3,22.806l0.1-2.813
      c-1.38-0.052-2.8,0.036-4.063,0.389c-3.18,0.891-4.474,3.217-4.641,6.378c-0.089,1.687,0.173,3.493,0.579,5.116l2.736-0.685
      c-0.347-1.391-0.574-2.914-0.501-4.288c0.102-1.944,0.636-3.26,2.588-3.808C17.053,22.828,18.181,22.763,19.3,22.806z 
      M31.447,2.913l-2.982-1.324c-0.867,1.622-1.754,3.542-2.516,5.556c-0.588-1.496-1.598-2.697-2.98-3.673
      c-2.362-1.67-5.801-2.584-10.043-3.18L10.852,0l0.512,2.03c0.782,3.101,2.323,6.43,5.055,8.628c1.972,1.588,4.526,2.57,7.798,2.444
      c-0.113,0.596-0.202,1.183-0.264,1.755c-8.184-1.47-13.319,0.404-16.163,3.944c-2.991,3.722-3.163,8.975-2.218,13.453
      c0.985,4.664,3.326,9.357,6.342,12.713c3.695,4.112,8.415,6.284,13.071,4.274c4.663,2.013,9.391-0.169,13.093-4.29
      c3.07-3.417,5.441-8.223,6.397-12.976c0.983-4.891,0.479-9.775-2.261-13.183c-2.777-3.453-7.738-5.318-15.593-4.031
      c0.161-0.975,0.387-1.94,0.655-2.87C28.319,8.28,29.595,5.846,31.447,2.913z"/>
  </g>
</svg>
