<svg xmlns="http://www.w3.org/2000/svg" viewBox="0 0 100 100" width="20" height="20">
  <path fill="#A3CC00" d="M97.157,49.83c-2.968-3.046-3.63-7.685-1.633-11.452c1.426-2.686,1.524-5.891,0.27-8.662
    c-1.255-2.772-3.722-4.794-6.669-5.468c-4.133-0.944-7.176-4.486-7.515-8.744c-0.241-3.037-1.877-5.788-4.419-7.435
    c-2.543-1.647-5.701-2.004-8.541-0.964c-3.984,1.458-8.442,0.137-11.01-3.26C55.807,1.423,52.957,0,49.936,0
    c-3.022,0-5.871,1.423-7.704,3.846c-2.568,3.396-7.028,4.717-11.009,3.259c-2.841-1.04-6.001-0.683-8.542,0.964
    c-2.543,1.647-4.178,4.397-4.42,7.435c-0.339,4.258-3.383,7.799-7.514,8.744c-2.948,0.674-5.415,2.696-6.67,5.469
    c-1.256,2.771-1.156,5.975,0.27,8.662c1.998,3.767,1.335,8.405-1.634,11.452c-2.118,2.174-3.109,5.219-2.678,8.236
    c0.43,3.016,2.231,5.656,4.871,7.141c3.7,2.08,5.631,6.342,4.767,10.523c-0.616,2.982,0.184,6.084,2.163,8.389
    c1.979,2.303,4.911,3.543,7.928,3.352c4.229-0.268,8.138,2.266,9.652,6.256c1.082,2.846,3.418,5.018,6.318,5.877
    c2.899,0.859,6.031,0.303,8.466-1.502c3.414-2.529,8.062-2.529,11.474,0c2.437,1.805,5.566,2.361,8.467,1.502
    c2.899-0.859,5.236-3.031,6.317-5.877c1.515-3.99,5.425-6.523,9.653-6.256c3.016,0.191,5.947-1.049,7.926-3.352
    c1.98-2.305,2.779-5.406,2.164-8.389c-0.864-4.182,1.065-8.443,4.766-10.523c2.641-1.484,4.443-4.125,4.871-7.141
    C100.267,55.049,99.277,52.004,97.157,49.83z"/>
  <path d="M41.643,74.562l-21.26-21.443l9.052-9.128l12.208,12.312l28.184-28.417l9.058,9.125L41.643,74.562z" fill="white"/>
</svg>
