<?xml version="1.0" encoding="UTF-8"?>
<svg width="236px" height="210px" viewBox="0 0 236 210" version="1.1" xmlns="http://www.w3.org/2000/svg" xmlns:xlink="http://www.w3.org/1999/xlink">
    <!-- Generator: Sketch 58 (84663) - https://sketch.com -->
    <title>3 copy</title>
    <desc>Created with Sketch.</desc>
    <g id="Page-1" stroke="none" stroke-width="1" fill="none" fill-rule="evenodd">
        <g id="3-copy" transform="translate(-15.000000, 0.000000)">
            <path d="M123.479492,208.646066 C179.251024,208.646066 235.524956,192.841194 235.524956,137.10267 C235.524956,81.3641457 173.783955,21.2470317 118.012423,21.2470317 C62.24089,21.2470317 15.2286204,91.8485817 15.2286204,147.587106 C15.2286204,203.32563 67.7079592,208.646066 123.479492,208.646066 Z" id="Oval" fill="#F8F1F0" transform="translate(125.376788, 114.946549) rotate(-170.000000) translate(-125.376788, -114.946549) "></path>
            <path d="M29.6277729,203.999054 C38.2913119,203.999054 46.3143224,196.828636 46.3143224,188.484588 C46.3143224,180.14054 37.9345937,173.999054 29.2710546,173.999054 C20.6075156,173.999054 14.3143224,181.515134 14.3143224,189.859182 C14.3143224,198.20323 20.9642339,203.999054 29.6277729,203.999054 Z" id="Oval-Copy" fill="#F8F1F0" transform="translate(30.314322, 188.999054) rotate(-280.000000) translate(-30.314322, -188.999054) "></path>
            <path d="M226.032681,194.396379 C231.718129,194.396379 236.983229,189.656746 236.983229,184.141346 C236.983229,178.625945 233.741076,171.396379 228.055628,171.396379 C222.370181,171.396379 215.983229,179.534549 215.983229,185.049949 C215.983229,190.56535 220.347234,194.396379 226.032681,194.396379 Z" id="Oval-Copy-3" fill="#F8F1F0" transform="translate(226.483229, 182.896379) rotate(-145.000000) translate(-226.483229, -182.896379) "></path>
            <path d="M32.8391214,23.5545958 C36.9001553,23.5545958 40.6609415,20.1678235 40.6609415,16.2267158 C40.6609415,12.285608 39.7061776,9.55459576 35.6451437,9.55459576 C31.5841098,9.55459576 25.6609415,12.9348638 25.6609415,16.8759716 C25.6609415,20.8170794 28.7780875,23.5545958 32.8391214,23.5545958 Z" id="Oval-Copy-2" fill="#F8F1F0" transform="translate(33.160941, 16.554596) rotate(-280.000000) translate(-33.160941, -16.554596) "></path>
            <g id="005-discount-tag" transform="translate(74.000000, 0.000000)" fill="#F69946" fill-rule="nonzero">
                <path d="M51,89.5 C51,91.4318358 49.4332033,93 47.5,93 C45.5667967,93 44,91.4318358 44,89.5 C44,87.5667971 45.5667967,86 47.5,86 C49.4332033,86 51,87.5667971 51,89.5 Z" id="Path"></path>
                <path d="M11.8849063,101.408972 C16.6315326,106.658055 16.4343752,110.847045 16.108931,117.78768 C16.0103525,119.868653 15.8996205,122.226819 15.9414824,124.778344 C16.1440413,137.139786 25.194365,139.196421 32.4662232,140.847408 C38.652367,142.253653 44.4968614,143.581474 48.0024778,149.701348 C54.0022673,160.361773 59.1013457,168.872265 70.9118696,165.083514 C74.9225322,163.794906 77.7907641,162.576611 80.0958822,161.597647 C83.5596367,160.126498 85.4677398,159.315202 88.4993686,159.315202 C91.5296472,159.315202 93.4391006,160.126498 96.9028551,161.597647 C99.2093238,162.576611 102.077555,163.796258 106.088218,165.083514 C111.696394,166.883238 116.245863,165.902923 120.106632,162.484664 C123.647359,159.349006 126.41026,154.225674 128.996259,149.701348 C132.503226,143.581474 138.34637,142.253653 144.532514,140.847408 C151.804372,139.196421 160.854696,137.139786 161.054554,124.778344 C161.096416,122.225467 160.987034,119.865949 160.889806,117.784975 C160.564362,110.845693 160.368555,106.656703 165.115181,101.408972 C172.31952,93.4434007 177.008079,88.4769186 176.999988,82.9817425 C177.00943,77.1174269 171.240557,71.3328888 165.115181,64.5626262 C160.368555,59.3121908 160.564362,55.1232009 160.889806,48.1825661 C160.987034,46.1015929 161.097766,43.7420747 161.054554,41.1905497 C160.854696,28.8304596 151.805723,26.7738251 144.533864,25.1214864 C138.347721,23.7152405 132.503226,22.3874197 128.996259,16.266194 C126.398106,11.7242902 123.612248,6.58878835 120.103931,3.48152603 C116.145934,-0.0219192687 111.561355,-0.86972335 106.088218,0.886731903 C102.074854,2.1753398 99.2025719,3.39363575 96.8961029,4.37395129 C93.4336994,5.84374839 91.5269462,6.653692 88.5020692,6.65504408 C85.4704404,6.653692 83.5650379,5.84374839 80.1026344,4.37395129 C77.7961654,3.39363575 74.9252332,2.1753398 70.9118696,0.888083976 C65.4387329,-0.871075423 60.8541537,-0.0219192687 56.8961561,3.48152603 C53.3554297,6.61583154 50.5898279,11.7432203 48.0024778,16.266194 C44.4982117,22.3833632 38.4255012,23.7138881 31.9962873,25.1214864 C24.4719055,26.7697689 15.1069406,28.8209947 14.9043817,41.1905497 C14.8544173,44.2924033 15.1042397,47.0792039 15.3270545,49.53743 C15.8982699,55.8993403 16.2439701,59.7394732 11.8849063,64.5626262 C4.79129981,72.4037991 -0.0187947459,77.4703408 5.52050139e-05,82.9736297 C-0.0201451547,88.7987327 5.58397971,94.4439987 11.8849063,101.408972 Z M17.0096422,69.2086462 C23.4010451,62.1382043 22.8230775,55.7154466 22.2127006,48.9167888 C21.9966379,46.518058 21.7724731,44.0368453 21.8170359,41.3027786 C21.9250673,34.6907189 25.4684946,33.6373866 33.4722651,31.8849879 C40.3768168,30.3719217 48.9693581,28.4910678 53.9995664,19.711496 C59.08244,11.4403366 61.3646015,5.09194806 68.8012076,7.47986153 C72.5147844,8.67246637 75.1115874,9.77447609 77.4032017,10.7480309 C81.1248807,12.3273532 84.0633326,13.5767485 88.5007189,13.5781006 C92.932704,13.5767485 95.8725063,12.3273532 99.5941853,10.7480309 C101.8858,9.77447609 104.482603,8.67246637 108.19888,7.47986153 C115.619281,5.09870877 117.839325,11.31729 122.999171,19.711496 C128.014525,28.4653767 136.326185,30.3543434 143.003871,31.8728186 C150.846944,33.6549646 154.032518,34.6447457 154.1419,41.304131 C154.179711,43.6379581 154.079782,45.7838353 153.982554,47.8594002 C153.646306,55.0488321 153.327614,61.8407293 159.989095,69.2099983 C165.089524,74.847151 170.091374,80.161138 170.08463,82.9736297 L170.08463,82.9912077 C170.092725,86.0295101 164.118592,92.1980615 159.989095,96.7615998 C153.327614,104.126813 153.646306,110.91871 153.982554,118.108142 C154.079782,120.183707 154.179711,122.330936 154.1419,124.664763 C154.032518,131.325501 150.845594,132.313929 143.00252,134.096075 C136.324834,135.613198 128.014525,137.502165 122.999171,146.257398 L122.531935,147.071398 C116.68474,157.299132 114.283744,160.441551 108.19888,158.491737 C104.488004,157.299132 101.892552,156.197122 99.6022878,155.22492 C95.8779078,153.642893 92.9354046,152.392145 88.4993686,152.392145 C84.061982,152.392145 81.1194791,153.641541 77.3950992,155.22492 C75.1061855,156.197122 72.5107332,157.299132 68.8012076,158.490384 C61.3956606,160.866129 59.1877707,154.698929 54.0009167,146.256046 C48.9842121,137.502165 40.673903,135.613198 33.996217,134.096075 C26.1517929,132.313929 22.9635182,131.325501 22.8541366,124.664763 C22.8163257,122.332288 22.9176051,120.187763 23.0148333,118.11355 C23.3537817,110.921414 23.6724737,104.128165 17.0096422,96.7615998 C12.3548426,91.6166331 6.90466243,85.8929421 6.91410066,82.9736297 C6.90331213,79.942088 12.8895976,73.7640714 17.0096422,69.2086462 L17.0096422,69.2086462 Z" id="Shape"></path>
                <path d="M74.5,59 C68.7099608,59 64,63.7099608 64,69.5 C64,75.288672 68.7099608,80 74.5,80 C80.2900391,80 85,75.288672 85,69.5 C85,63.7099608 80.2900391,59 74.5,59 Z M74.5,73 C72.5695312,73 71,71.4291016 71,69.5 C71,67.5695312 72.5695312,66 74.5,66 C76.4304687,66 78,67.5695312 78,69.5 C78,71.4291016 76.4304687,73 74.5,73 Z" id="Shape"></path>
                <path d="M92,96.5 C92,102.288672 96.7099608,107 102.5,107 C108.290039,107 113,102.288672 113,96.5 C113,90.7099609 108.290039,86 102.5,86 C96.7099608,86 92,90.7099609 92,96.5 Z M106,96.5 C106,98.4291016 104.430469,100 102.5,100 C100.569531,100 99,98.4291016 99,96.5 C99,94.5695312 100.569531,93 102.5,93 C104.430469,93 106,94.5695312 106,96.5 Z" id="Shape"></path>
                <path d="M73.5140753,106.424713 C75.0693085,107.469349 77.1836817,107.055513 78.228915,105.473827 L105.428892,64.3312702 C106.470142,62.7549425 106.047798,60.6268331 104.485925,59.5768407 C102.922723,58.5255088 100.812334,58.9513988 99.771085,60.5277265 L72.5711075,101.670284 C71.5298584,103.245272 71.9522016,105.373382 73.5140753,106.424713 Z" id="Path"></path>
                <path d="M89,142 C121.532698,142 148,115.532698 148,83 C148,50.4673025 121.532698,24 89,24 C56.4673025,24 30,50.4673025 30,83 C30,115.532698 56.4673025,142 89,142 Z M89,30.9411765 C117.705561,30.9411765 141.058824,54.2944395 141.058824,83 C141.058824,111.704205 117.705561,135.058824 89,135.058824 C60.2944392,135.058824 36.9411765,111.704205 36.9411765,83 C36.9411765,54.2944395 60.2944392,30.9411765 89,30.9411765 Z" id="Shape"></path>
                <path d="M82.1105782,45.8801929 C83.9971553,45.562214 85.2693091,43.774767 84.9512706,41.8885437 C84.6345853,40.00232 82.8481566,38.7317577 80.9602266,39.0483836 C62.0606229,42.2295253 47.2264982,57.063577 44.0488205,75.9609921 C43.6942416,78.0664181 45.3155608,80 47.4687488,80 C49.1293155,80 50.5963524,78.8025053 50.8819104,77.1097752 C53.5696734,61.1215281 66.1206881,48.5715117 82.1105782,45.8801929 Z" id="Path"></path>
            </g>
        </g>
    </g>
</svg>