<?xml version="1.0" encoding="UTF-8"?>
<svg width="239px" height="225px" viewBox="0 0 239 225" version="1.1" xmlns="http://www.w3.org/2000/svg" xmlns:xlink="http://www.w3.org/1999/xlink">
    <!-- Generator: Sketch 58 (84663) - https://sketch.com -->
    <title>4 copy</title>
    <desc>Created with Sketch.</desc>
    <g id="Page-1" stroke="none" stroke-width="1" fill="none" fill-rule="evenodd">
        <g id="4-copy" transform="translate(-1.000000, -2.000000)">
            <path d="M170.650779,232.642566 C226.422311,232.642566 229.344564,181.06533 229.344564,125.326806 C229.344564,69.5882816 216.232474,30.9639661 160.460941,30.9639661 C104.689409,30.9639661 16.2656186,70.788231 16.2656186,126.526755 C16.2656186,182.26528 114.879246,232.642566 170.650779,232.642566 Z" id="Oval" fill="#F8F1F0" transform="translate(122.805091, 131.803266) rotate(-170.000000) translate(-122.805091, -131.803266) "></path>
            <path d="M8.65672523,51.1818954 C12.9884947,51.1818954 17,47.5532109 17,43.3305954 C17,39.1079799 12.8101356,36 8.4783661,36 C4.14659658,36 1,39.8036112 1,44.0262267 C1,48.2488421 4.32495571,51.1818954 8.65672523,51.1818954 Z" id="Oval-Copy" fill="#F8F1F0" transform="translate(9.000000, 43.590948) rotate(-280.000000) translate(-9.000000, -43.590948) "></path>
            <path d="M222.35636,224.869954 C230.478428,224.869954 238,218.096409 238,210.214194 C238,202.331978 233.368352,192 225.246284,192 C217.124216,192 208,203.63049 208,211.512705 C208,219.394921 214.234292,224.869954 222.35636,224.869954 Z" id="Oval-Copy-3" fill="#F8F1F0" transform="translate(223.000000, 208.434977) rotate(-145.000000) translate(-223.000000, -208.434977) "></path>
            <path d="M139.527997,24 C145.48418,24 151,18.9198417 151,13.00818 C151,7.09651831 149.59968,3 143.643497,3 C137.687313,3 129,8.07040207 129,13.9820637 C129,19.8937254 133.571814,24 139.527997,24 Z" id="Oval-Copy-2" fill="#F8F1F0" transform="translate(140.000000, 13.500000) rotate(-280.000000) translate(-140.000000, -13.500000) "></path>
            <g id="001-payment-method" transform="translate(66.000000, 27.000000)" fill="#F69946" fill-rule="nonzero">
                <path d="M72,92 C72,72.1485714 55.8514286,56 36,56 C16.1485714,56 0,72.1485714 0,92 C0,111.851429 16.1485714,128 36,128 C55.8514286,128 72,111.851429 72,92 Z M5.14285714,92 C5.14285714,74.9848571 18.9848571,61.1428571 36,61.1428571 C53.0151429,61.1428571 66.8571429,74.9848571 66.8571429,92 C66.8571429,109.015143 53.0151429,122.857143 36,122.857143 C18.9848571,122.857143 5.14285714,109.015143 5.14285714,92 Z" id="Shape"></path>
                <path d="M39,118 L39,112.76995 C44.61,112.12735 49,107.3155 49,101.425 C49,95.09845 43.9525,89.95 37.75,89.95 L35.25,89.95 C31.8025,89.95 29,87.0889 29,83.575 C29,80.0611 31.8025,77.2 35.25,77.2 L37.75,77.2 C41.1975,77.2 44,80.0611 44,83.575 L44,84.85 L49,84.85 L49,83.575 C49,77.6845 44.61,72.87265 39,72.23005 L39,67 L34,67 L34,72.23005 C28.39,72.87265 24,77.6845 24,83.575 C24,89.90155 29.0475,95.05 35.25,95.05 L37.75,95.05 C41.1975,95.05 44,97.9111 44,101.425 C44,104.9389 41.1975,107.8 37.75,107.8 L35.25,107.8 C31.8025,107.8 29,104.9389 29,101.425 L29,100.15 L24,100.15 L24,101.425 C24,107.3155 28.39,112.12735 34,112.76995 L34,118 L39,118 Z" id="Path"></path>
                <path d="M39.1111111,20.4 L120.888889,20.4 L120.888889,25.5 L126,25.5 L126,12.75 C126,5.71965 120.267889,0 113.222222,0 L46.7777778,0 C39.7321111,0 34,5.71965 34,12.75 L34,51 L39.1111111,51 L39.1111111,20.4 Z M39.1111111,12.75 C39.1111111,8.5323 42.5508889,5.1 46.7777778,5.1 L113.222222,5.1 C117.449111,5.1 120.888889,8.5323 120.888889,12.75 L120.888889,15.3 L39.1111111,15.3 L39.1111111,12.75 Z" id="Shape"></path>
                <path d="M34,146.5 C34,153.3925 39.7321111,159 46.7777778,159 L113.222222,159 C120.267889,159 126,153.3925 126,146.5 L126,134 L34,134 L34,146.5 Z M39.1111111,139 L120.888889,139 L120.888889,146.5 C120.888889,150.635 117.449111,154 113.222222,154 L46.7777778,154 C42.5508889,154 39.1111111,150.635 39.1111111,146.5 L39.1111111,139 Z" id="Shape"></path>
                <rect id="Rectangle" x="70" y="144" width="20" height="5"></rect>
                <path d="M151.263158,30 L68.7368421,30 C64.4712632,30 61,33.4685385 61,37.7307692 L61,60.9230769 L63.5789474,60.9230769 L66.1578947,60.9230769 L153.842105,60.9230769 L153.842105,89.2692308 C153.842105,90.6891154 152.686737,91.8461538 151.263158,91.8461538 L76.4736842,91.8461538 L76.4736842,97 L151.263158,97 C155.528737,97 159,93.5314615 159,89.2692308 L159,37.7307692 C159,33.4685385 155.528737,30 151.263158,30 Z M153.842105,55.7692308 L66.1578947,55.7692308 L66.1578947,45.4615385 L153.842105,45.4615385 L153.842105,55.7692308 Z M153.842105,40.3076923 L66.1578947,40.3076923 L66.1578947,37.7307692 C66.1578947,36.3108846 67.3132632,35.1538462 68.7368421,35.1538462 L151.263158,35.1538462 C152.686737,35.1538462 153.842105,36.3108846 153.842105,37.7307692 L153.842105,40.3076923 Z" id="Shape"></path>
                <path d="M131,83.545 C132.887429,85.645 135.626,87 138.714286,87 C144.386857,87 149,82.515 149,77 C149,71.485 144.386857,67 138.714286,67 C135.626,67 132.887429,68.355 131,70.455 C129.112571,68.355 126.374,67 123.285714,67 C117.613143,67 113,71.485 113,77 C113,82.515 117.613143,87 123.285714,87 C126.374,87 129.112571,85.645 131,83.545 Z M138.714286,72 C141.550571,72 143.857143,74.2425 143.857143,77 C143.857143,79.7575 141.550571,82 138.714286,82 C135.878,82 133.571429,79.7575 133.571429,77 C133.571429,74.2425 135.878,72 138.714286,72 Z M118.142857,77 C118.142857,74.2425 120.449429,72 123.285714,72 C126.122,72 128.428571,74.2425 128.428571,77 C128.428571,79.7575 126.122,82 123.285714,82 C120.449429,82 118.142857,79.7575 118.142857,77 Z" id="Shape"></path>
                <rect id="Rectangle" x="121" y="103" width="5" height="25"></rect>
                <rect id="Rectangle" x="77" y="102" width="5" height="5"></rect>
                <rect id="Rectangle" x="87" y="102" width="5" height="5"></rect>
                <rect id="Rectangle" x="97" y="102" width="5" height="5"></rect>
            </g>
        </g>
    </g>
</svg>