<?xml version="1.0" encoding="UTF-8"?>
<svg width="228px" height="224px" viewBox="0 0 228 224" version="1.1" xmlns="http://www.w3.org/2000/svg" xmlns:xlink="http://www.w3.org/1999/xlink">
    <!-- Generator: Sketch 58 (84663) - https://sketch.com -->
    <title>1 copy</title>
    <desc>Created with Sketch.</desc>
    <g id="Page-1" stroke="none" stroke-width="1" fill="none" fill-rule="evenodd">
        <g id="1-copy" transform="translate(-12.000000, 0.000000)">
            <path d="M114.580337,224 C170.35187,224 222,176.101364 222,120.36284 C222,64.6243155 208.88791,26 153.116377,26 C97.3448445,26 16,73.8066481 16,129.545172 C16,185.283697 58.8088048,224 114.580337,224 Z" id="Oval" fill="#F8F1F0" transform="translate(119.000000, 125.000000) rotate(-170.000000) translate(-119.000000, -125.000000) "></path>
            <path d="M191.656725,223.181895 C195.988495,223.181895 200,219.553211 200,215.330595 C200,211.10798 195.810136,208 191.478366,208 C187.146597,208 184,211.803611 184,216.026227 C184,220.248842 187.324956,223.181895 191.656725,223.181895 Z" id="Oval-Copy" fill="#F8F1F0" transform="translate(192.000000, 215.590948) rotate(-280.000000) translate(-192.000000, -215.590948) "></path>
            <path d="M222.35636,216.869954 C230.478428,216.869954 238,210.096409 238,202.214194 C238,194.331978 233.368352,184 225.246284,184 C217.124216,184 208,195.63049 208,203.512705 C208,211.394921 214.234292,216.869954 222.35636,216.869954 Z" id="Oval-Copy-3" fill="#F8F1F0" transform="translate(223.000000, 200.434977) rotate(-145.000000) translate(-223.000000, -200.434977) "></path>
            <path d="M22.5279972,26 C28.4841803,26 34,20.9198417 34,15.00818 C34,9.09651831 32.5996797,5 26.6434966,5 C20.6873135,5 12,10.0704021 12,15.9820637 C12,21.8937254 16.5718141,26 22.5279972,26 Z" id="Oval-Copy-2" fill="#F8F1F0" transform="translate(23.000000, 15.500000) rotate(-280.000000) translate(-23.000000, -15.500000) "></path>
            <g id="004-shipping" transform="translate(72.000000, 0.000000)" fill="#F69946" fill-rule="nonzero">
                <path d="M159.226235,139.074465 C158.164796,136.353955 156.036363,134.180494 153.330175,133.05361 C150.67954,131.93262 147.684844,131.93262 145.034209,133.05361 L125.823125,141.166881 C125.874604,140.814339 125.907195,140.459217 125.920898,140.102991 C125.920898,134.406313 121.278121,129.788262 115.550942,129.788262 L92.568156,129.788262 C90.2441747,129.784578 87.9527847,129.247107 85.8721271,128.217476 C76.2558443,123.450598 65.6607118,120.962169 54.916326,120.947065 L53.3312041,120.947065 C51.6949731,120.947065 50.3683594,122.266614 50.3683594,123.894131 C50.3683594,125.521648 51.6949731,126.841196 53.3312041,126.841196 L54.916326,126.841196 C64.7414892,126.853353 74.4303617,129.129224 83.2233439,133.489776 C86.126191,134.928681 89.3249522,135.679077 92.568156,135.682393 L115.550942,135.682393 C118.005289,135.696759 119.983728,137.687134 119.969284,140.128778 C119.957433,142.174778 118.535267,143.945596 116.531644,144.408653 C116.143511,144.444018 115.761304,144.523589 115.367246,144.523589 L79.9968061,144.523589 C78.3605751,144.523589 77.0339614,145.843137 77.0339614,147.470654 C77.0339614,149.098171 78.3605751,150.41772 79.9968061,150.41772 L115.367246,150.41772 L115.515388,150.41772 L115.550942,150.41772 C115.610199,150.41772 115.666493,150.400037 115.728713,150.400037 C118.07973,150.361725 120.401489,149.873249 122.566958,148.961869 L147.33634,138.499787 C148.517774,137.995839 149.855498,137.995839 151.036933,138.499787 C152.264291,139.015155 153.227216,140.005738 153.703493,141.243505 C154.209769,142.507059 154.180881,143.920914 153.623496,145.163102 C153.101295,146.365505 152.112816,147.307092 150.882865,147.774202 L105.11284,165.132417 C94.3577142,169.229207 82.4381901,169.100641 71.7749121,164.772875 L47.4055147,154.696859 L47.4055147,120.947065 C47.4055147,119.319549 46.078901,118 44.4426701,118 L20.7399127,118 C19.1036817,118 17.777068,119.319549 17.777068,120.947065 L2.96284467,120.947065 C1.3266137,120.947065 0,122.266614 0,123.894131 C0,125.521648 1.3266137,126.841196 2.96284467,126.841196 L17.777068,126.841196 L17.777068,141.576523 C17.777068,143.20404 19.1036817,144.523589 20.7399127,144.523589 C22.3761437,144.523589 23.7027574,143.20404 23.7027574,141.576523 L23.7027574,123.894131 L41.4798254,123.894131 L41.4798254,159.258916 L23.7027574,159.258916 L23.7027574,153.364785 C23.7027574,151.737268 22.3761437,150.41772 20.7399127,150.41772 C19.1036817,150.41772 17.777068,151.737268 17.777068,153.364785 L17.777068,156.311851 L2.96284467,156.311851 C1.3266137,156.311851 0,157.631399 0,159.258916 C0,160.886433 1.3266137,162.205981 2.96284467,162.205981 L17.777068,162.205981 C17.777068,163.833498 19.1036817,165.153047 20.7399127,165.153047 L44.4426701,165.153047 C46.078901,165.153047 47.4055147,163.833498 47.4055147,162.205981 L47.4055147,161.083149 L69.526113,170.219052 C81.5860019,175.11376 95.0662044,175.261113 107.231274,170.631641 L152.998336,153.273426 C155.71045,152.249321 157.892585,150.180849 159.051428,147.53549 C160.252491,144.85366 160.315451,141.803079 159.226235,139.074465 Z" id="Path"></path>
                <path d="M156.87287,22.7998234 C156.87287,22.7644198 156.87287,22.7319665 156.87287,22.6965629 C156.758304,22.3576473 156.581652,22.042334 156.352522,21.7672185 C156.284522,21.6816599 156.204696,21.6197036 156.130783,21.5429958 C155.959304,21.3711408 155.76787,21.2206755 155.560174,21.0945502 C155.451152,21.0311188 155.338804,20.9739567 155.22313,20.9234328 C155.137022,20.8743841 155.047957,20.8301296 154.957043,20.7906694 L89.9135652,0.138571886 C89.3307609,-0.0461906287 88.7047174,-0.0461906287 88.121913,0.138571886 L23.0784348,20.7906694 C21.8485217,21.1723644 21.0073913,22.3049107 21,23.5905037 L21,94.3976951 C21,95.6851321 21.838913,96.8232102 23.0695652,97.2093306 L88.1130435,117.861428 C88.6958478,118.046191 89.3218913,118.046191 89.9046957,117.861428 L154.948174,97.2093306 C156.171804,96.8169408 157,95.6803378 157,94.3976951 L157,23.5905037 C156.994087,23.3223952 156.951217,23.0564995 156.87287,22.7998234 Z M89,6.03622087 L144.286957,23.5905037 L132.85113,27.2223226 L77.5671304,9.66508942 L89,6.03622087 Z M67.8135652,12.762904 L123.100522,30.3171869 L111.667652,33.9490058 L56.3806957,16.3947229 L67.8135652,12.762904 Z M151.086957,92.2380757 L91.9565217,111.013783 L91.9565217,100.298294 C91.9565217,98.6689914 90.6327391,97.3479947 89,97.3479947 C87.3672609,97.3479947 86.0434783,98.6689914 86.0434783,100.298294 L86.0434783,111.013783 L26.9130435,92.241026 L26.9130435,25.7471728 L46.6241739,19.4895872 L101.91113,37.0468204 L89,41.1447866 L39.626087,25.4727949 C38.0698478,24.9789885 36.4075435,25.8375257 35.9126957,27.3904897 C35.4178478,28.9434536 36.2781957,30.6022596 37.8344348,31.096066 L86.0434783,46.3992702 L86.0434783,88.4970958 C86.0434783,90.1263988 87.3672609,91.4473954 89,91.4473954 C90.6327391,91.4473954 91.9565217,90.1263988 91.9565217,88.4970958 L91.9565217,46.3992702 L108.71113,41.0887309 L108.71113,60.6610187 C108.71113,62.2903217 110.034913,63.6113183 111.667652,63.6113183 C111.968478,63.6094744 112.267457,63.5626384 112.554609,63.4726543 L119.452174,61.2776313 C121.008413,60.7838249 121.868761,59.1250189 121.373913,57.572055 C120.879065,56.019091 119.216761,55.1605538 117.660522,55.6543602 L114.615304,56.6220585 L114.615304,39.2152906 L129.888696,34.364998 L129.888696,51.7717659 L126.530087,52.8368241 C124.973848,53.3306305 124.1135,54.9894364 124.608348,56.5424004 C124.9975,57.7641932 126.132804,58.5950714 127.417043,58.5987592 C127.718239,58.599128 128.017587,58.552292 128.304,58.4600952 L133.726261,56.7400705 C134.956913,56.35395 135.794717,55.2158719 135.795826,53.9284349 L135.795826,32.4768062 L151.086957,27.6265136 L151.086957,92.2380757 Z" id="Shape"></path>
                <path d="M36,74 C34.34325,74 33,75.34325 33,77 L33,86 C33,87.65675 34.34325,89 36,89 C37.65675,89 39,87.65675 39,86 L39,77 C39,75.34325 37.65675,74 36,74 Z" id="Path"></path>
                <path d="M48,77 C46.34325,77 45,78.34325 45,80 L45,89 C45,90.65675 46.34325,92 48,92 C49.65675,92 51,90.65675 51,89 L51,80 C51,78.34325 49.65675,77 48,77 Z" id="Path"></path>
            </g>
        </g>
    </g>
</svg>