<?xml version="1.0" encoding="UTF-8"?>
<svg width="234px" height="227px" viewBox="0 0 234 227" version="1.1" xmlns="http://www.w3.org/2000/svg" xmlns:xlink="http://www.w3.org/1999/xlink">
    <!-- Generator: Sketch 58 (84663) - https://sketch.com -->
    <title>2 copy</title>
    <desc>Created with Sketch.</desc>
    <g id="Page-1" stroke="none" stroke-width="1" fill="none" fill-rule="evenodd">
        <g id="2-copy" transform="translate(-18.000000, 0.000000)">
            <path d="M110.604245,225.763263 C166.375777,225.763263 230.457934,197.19637 230.457934,141.457846 C230.457934,85.7193216 176.0332,33.375909 120.261668,33.375909 C64.4901353,33.375909 15.6594583,74.5614256 15.6594583,130.29995 C15.6594583,186.038474 54.8327121,225.763263 110.604245,225.763263 Z" id="Oval" fill="#F8F1F0" transform="translate(123.058696, 129.569586) rotate(-170.000000) translate(-123.058696, -129.569586) "></path>
            <path d="M208.656725,223.181895 C212.988495,223.181895 217,219.553211 217,215.330595 C217,211.10798 212.810136,208 208.478366,208 C204.146597,208 201,211.803611 201,216.026227 C201,220.248842 204.324956,223.181895 208.656725,223.181895 Z" id="Oval-Copy" fill="#F8F1F0" transform="translate(209.000000, 215.590948) rotate(-280.000000) translate(-209.000000, -215.590948) "></path>
            <path d="M34.3563598,47.8699536 C42.4784276,47.8699536 50,41.0964092 50,33.2141936 C50,25.331978 45.3683522,15 37.2462843,15 C29.1242165,15 20,26.6304897 20,34.5127053 C20,42.3949208 26.234292,47.8699536 34.3563598,47.8699536 Z" id="Oval-Copy-3" fill="#F8F1F0" transform="translate(35.000000, 31.434977) rotate(-145.000000) translate(-35.000000, -31.434977) "></path>
            <path d="M239.527997,204 C245.48418,204 251,198.919842 251,193.00818 C251,187.096518 249.59968,183 243.643497,183 C237.687313,183 229,188.070402 229,193.982064 C229,199.893725 233.571814,204 239.527997,204 Z" id="Oval-Copy-2" fill="#F8F1F0" transform="translate(240.000000, 193.500000) rotate(-280.000000) translate(-240.000000, -193.500000) "></path>
            <g id="003-call-center-agent" transform="translate(89.000000, 0.000000)" fill="#F69946" fill-rule="nonzero">
                <path d="M116.578239,109.554156 L96.5634174,109.554156 L96.5634174,101.743125 C103.401383,97.546625 108.631183,90.97825 111.098387,83.1926562 L115.717826,83.1926562 C125.964126,83.1926562 134.3,74.8501875 134.3,64.5957813 C134.3,58.9431563 131.763757,53.8749063 127.773913,50.461125 L127.773913,48.8125 C127.773913,21.8972187 105.894004,0 79,0 C52.1059957,0 30.226087,21.8972188 30.226087,48.8125 L30.226087,50.4614688 C26.2362435,53.87525 23.7,58.9431563 23.7,64.596125 C23.7,74.8505312 32.0358739,83.193 42.2821739,83.193 L46.901613,83.193 C49.3684739,90.97825 54.5986174,97.546625 61.4365826,101.743469 L61.4365826,109.5545 L41.4217609,109.5545 C18.5818304,109.554156 0,128.150688 0,151.008688 L0,172.5625 C0,174.460688 1.53775217,176 3.43478261,176 L26.1682348,176 C28.0652652,176 29.6030174,174.460688 29.6030174,172.5625 C29.6030174,170.664313 28.0652652,169.125 26.1682348,169.125 L6.86956522,169.125 L6.86956522,151.008688 C6.86956522,131.941563 22.3693652,116.429156 41.4217609,116.429156 L43.0704565,116.429156 L63.492987,143.127875 C64.0944174,143.914375 65.0060087,144.402844 65.9938522,144.468156 C66.0697609,144.473312 66.1449826,144.475375 66.2205478,144.475375 C67.1283609,144.475375 68.0028565,144.115125 68.6492826,143.468531 L75.5652174,136.547469 L75.5652174,169.125 L57.0812783,169.125 C55.1842478,169.125 53.6464957,170.664313 53.6464957,172.5625 C53.6464957,174.460688 55.1842478,176 57.0812783,176 L154.565217,176 C156.462248,176 158,174.460688 158,172.5625 L158,151.008688 C158,128.150688 139.41817,109.554156 116.578239,109.554156 L116.578239,109.554156 Z M95.6672826,116.429156 L106.278013,116.429156 L91.4359739,135.832469 L83.8574696,128.248313 L95.6672826,116.429156 Z M90.8802261,35.926 C89.5372261,34.5850313 87.3623217,34.5874375 86.0227565,35.9321875 L81.4435043,40.5264063 C76.314687,45.6723438 69.4911478,48.5062188 62.228987,48.5062188 L52.2162522,48.5062188 C52.3818087,33.8628125 64.3300435,22 79,22 C93.6699565,22 105.618191,33.8628125 105.783404,48.505875 L99.825087,48.505875 C95.4660043,48.505875 91.3892609,46.2917813 88.9996826,42.6803438 L90.8864087,40.7873125 C92.2263174,39.44325 92.2235696,37.266625 90.8802261,35.926 L90.8802261,35.926 Z M115.717826,76.318 L112.66087,76.318 L112.66087,52.87425 L115.717826,52.87425 C122.176248,52.87425 127.430435,58.1329375 127.430435,64.5964688 C127.430435,71.06 122.176248,76.318 115.717826,76.318 Z M79,6.875 C101.407491,6.875 119.762626,24.5674687 120.852483,46.7269687 C119.220617,46.256375 117.499104,45.99925 115.717826,45.99925 L112.54237,45.99925 C111.109378,28.7354375 96.6139087,15.125 79,15.125 C61.3860913,15.125 46.8906217,28.7354375 45.4576304,45.9989062 L42.2821739,45.9989062 C40.5008957,45.9989062 38.7797261,46.256375 37.1475174,46.7269687 C38.2373739,24.5674687 56.5925087,6.875 79,6.875 Z M45.3391304,76.318 L42.2821739,76.318 C35.8237522,76.318 30.5695652,71.0596563 30.5695652,64.596125 C30.5695652,58.1325937 35.8237522,52.8739062 42.2821739,52.8739062 L45.3391304,52.8739062 L45.3391304,76.318 Z M52.2086957,73.0571875 L52.2086957,55.380875 L62.228987,55.380875 C70.277713,55.380875 77.8960609,52.6009687 83.9958913,47.4976562 C87.7167913,52.4112187 93.5820261,55.380875 99.825087,55.380875 L105.791304,55.380875 L105.791304,73.0571875 C105.791304,74.9158437 105.599643,76.7305 105.23693,78.4832812 L91.228513,78.4832812 C89.8106348,74.482375 85.9928739,71.6082812 81.5149478,71.6082812 L78.7671217,71.6082812 C73.0853043,71.6082812 68.4627739,76.2344687 68.4627739,81.9207812 C68.4627739,87.6070937 73.0853043,92.2332812 78.7671217,92.2332812 L81.5149478,92.2332812 C85.9925304,92.2332812 89.8106348,89.3591875 91.228513,85.3582812 L102.781748,85.3582812 C98.314813,93.9417187 89.3345739,99.8215625 78.9996565,99.8215625 C64.2273435,99.8215625 52.2086957,87.8154062 52.2086957,73.0571875 L52.2086957,73.0571875 Z M84.9500739,81.9207813 C84.9500739,83.8162188 83.4092304,85.3582813 81.5152913,85.3582813 L78.7674652,85.3582813 C76.8735261,85.3582813 75.3326826,83.8162188 75.3326826,81.9207813 C75.3326826,80.0253438 76.8735261,78.4832813 78.7674652,78.4832813 L81.5152913,78.4832813 C83.4092304,78.4832813 84.9500739,80.0256875 84.9500739,81.9207813 Z M79,106.696906 C82.7367,106.696906 86.3325739,106.084344 89.6938522,104.956156 L89.6938522,112.684688 L79,123.387 L68.3061478,112.684344 L68.3061478,104.955813 C71.6674261,106.084 75.2633,106.696906 79,106.696906 L79,106.696906 Z M66.5640261,135.832469 L51.721987,116.429156 L62.3327174,116.429156 L74.1425304,128.248313 L66.5640261,135.832469 Z M151.130435,169.125 L82.4347826,169.125 L82.4347826,136.547469 L89.3510609,143.469219 C89.997487,144.115813 90.8719826,144.476063 91.7797957,144.476063 C91.8550174,144.476063 91.9309261,144.473656 92.0064913,144.468844 C92.9939913,144.403531 93.9055826,143.915063 94.5073565,143.128563 L114.929887,116.429844 L116.578583,116.429844 C135.630635,116.429156 151.130435,131.941563 151.130435,151.008688 L151.130435,169.125 Z" id="XMLID_789_"></path>
                <path d="M126.617597,151 L110.382403,151 C108.514302,151 107,152.5673 107,154.5 C107,156.4327 108.514302,158 110.382403,158 L126.617597,158 C128.485698,158 130,156.4327 130,154.5 C130,152.5673 128.485698,151 126.617597,151 Z" id="XMLID_841_"></path>
                <path d="M41.5,169 C40.576,169 39.6765,169.37415 39.0255,170.0255 C38.371,170.6765 38,171.5795 38,172.5 C38,173.4205 38.371,174.3235 39.0255,174.97415 C39.673,175.62515 40.576,176 41.5,176 C42.4205,176 43.32,175.6255 43.9745,174.97415 C44.6255,174.3235 45,173.4205 45,172.5 C45,171.5795 44.6255,170.6765 43.9745,170.0255 C43.32,169.37415 42.4205,169 41.5,169 Z" id="XMLID_842_"></path>
            </g>
        </g>
    </g>
</svg>