<?xml version="1.0" encoding="UTF-8"?>
<svg width="236px" height="227px" viewBox="0 0 236 227" version="1.1" xmlns="http://www.w3.org/2000/svg" xmlns:xlink="http://www.w3.org/1999/xlink">
    <!-- Generator: Sketch 58 (84663) - https://sketch.com -->
    <title>2 copy 2</title>
    <desc>Created with Sketch.</desc>
    <g id="Page-1" stroke="none" stroke-width="1" fill="none" fill-rule="evenodd">
        <g id="2-copy-2" transform="translate(-11.000000, 0.000000)">
            <path d="M110.604245,225.763263 C166.375777,225.763263 230.457934,197.19637 230.457934,141.457846 C230.457934,85.7193216 176.0332,33.375909 120.261668,33.375909 C64.4901353,33.375909 15.6594583,74.5614256 15.6594583,130.29995 C15.6594583,186.038474 54.8327121,225.763263 110.604245,225.763263 Z" id="Oval" fill="#F3E9E4" transform="translate(123.058696, 129.569586) rotate(-170.000000) translate(-123.058696, -129.569586) "></path>
            <path d="M220.656725,212.181895 C224.988495,212.181895 229,208.553211 229,204.330595 C229,200.10798 224.810136,197 220.478366,197 C216.146597,197 213,200.803611 213,205.026227 C213,209.248842 216.324956,212.181895 220.656725,212.181895 Z" id="Oval-Copy" fill="#F3E9E4" transform="translate(221.000000, 204.590948) rotate(-280.000000) translate(-221.000000, -204.590948) "></path>
            <path d="M34.3563598,47.8699536 C42.4784276,47.8699536 50,41.0964092 50,33.2141936 C50,25.331978 45.3683522,15 37.2462843,15 C29.1242165,15 20,26.6304897 20,34.5127053 C20,42.3949208 26.234292,47.8699536 34.3563598,47.8699536 Z" id="Oval-Copy-3" fill="#F3E9E4" transform="translate(35.000000, 31.434977) rotate(-145.000000) translate(-35.000000, -31.434977) "></path>
            <path d="M21.5279972,212 C27.4841803,212 33,206.919842 33,201.00818 C33,195.096518 31.5996797,191 25.6434966,191 C19.6873135,191 11,196.070402 11,201.982064 C11,207.893725 15.5718141,212 21.5279972,212 Z" id="Oval-Copy-2" fill="#F3E9E4" transform="translate(22.000000, 201.500000) rotate(-280.000000) translate(-22.000000, -201.500000) "></path>
            <g id="007-accountant" transform="translate(58.000000, 0.000000)" fill="#F69946" fill-rule="nonzero">
                <path d="M113,64 C113,65.6567384 111.656738,67 110,67 C108.343262,67 107,65.6567384 107,64 C107,62.3432616 108.343262,61 110,61 C111.656738,61 113,62.3432616 113,64 Z" id="Path"></path>
                <path d="M143,64 C143,65.6567384 141.656738,67 140,67 C138.343262,67 137,65.6567384 137,64 C137,62.3432616 138.343262,61 140,61 C141.656738,61 143,62.3432616 143,64 Z" id="Path"></path>
                <path d="M125,88 C121.690918,88 119,85.3090821 119,82 L113,82 C113,88.6181643 118.381836,94 125,94 C131.618164,94 137,88.6181643 137,82 L131,82 C131,85.3090821 128.309082,88 125,88 Z" id="Path"></path>
                <path d="M174.410015,120.975421 L170.810893,119.774225 C171.035653,118.247054 171.785842,117.339088 172.966198,116.04263 C174.584166,114.259443 176.806452,111.818352 176.806452,107.284471 C176.806452,102.755056 174.584166,100.3095 172.966198,98.526312 C171.556617,96.9753261 170.709677,96.0450323 170.709677,93.8688886 C170.709677,91.6986992 171.556617,90.7624511 172.961733,89.2203959 C174.584166,87.4372087 176.806452,84.9976058 176.806452,80.465214 C176.806452,75.9328221 174.584166,73.496196 172.961733,71.7130089 C171.556617,70.1709537 170.709677,69.2347056 170.709677,67.0645161 L170.709677,45.7258065 C170.709677,20.5126086 150.197069,0 124.983871,0 C99.7706731,0 79.2580645,20.5126086 79.2580645,45.7258065 L79.2580645,67.0645161 C79.2580645,69.2347056 78.411125,70.1709537 77.0060091,71.7130089 C76.4046671,72.3724013 75.7244359,73.1240787 75.1037439,74.0335337 C73.707559,73.5482926 72.2503465,73.2684602 70.7588991,73.2044559 C74.3044355,67.7998206 76.2096774,61.4738218 76.2096774,54.8709677 C76.2096774,36.3826787 61.1657084,21.3387097 42.6774194,21.3387097 C24.1891303,21.3387097 9.14516129,36.3826787 9.14516129,54.8709677 C9.14516129,61.4797757 11.05338,67.8147051 14.6048702,73.2252946 C6.5016381,73.5661542 0,80.2181277 0,88.4032258 L0,173.758065 C0,182.161968 6.83803219,189 15.2419355,189 L70.1129032,189 C77.474877,189 83.6326787,183.753142 85.0467253,176.806452 L189,176.806452 L189,141.214151 C189,132.016893 183.135427,123.880915 174.410015,120.975421 L174.410015,120.975421 Z M168.457622,75.8167213 C169.862738,77.3617536 170.709677,78.2980013 170.709677,80.465214 C170.709677,82.6324267 169.862738,83.5716511 168.457622,85.1137067 C166.835189,86.899871 164.612903,89.3394735 164.612903,93.8688886 C164.612903,98.3983037 166.835189,100.84386 168.453157,102.627048 C169.862738,104.175057 170.709677,105.105351 170.709677,107.281494 C170.709677,109.459126 169.862738,110.393886 168.453157,111.940406 C167.219215,113.302356 165.639948,115.055774 164.95674,117.819864 L143.274194,110.591852 L143.274194,104.276273 C150.880277,99.304782 156.331055,91.3325353 157.972837,82.0504347 C162.210512,81.3434113 165.866195,78.9201817 168.15844,75.4818156 C168.25519,75.5934505 168.359383,75.7095514 168.457622,75.8167213 L168.457622,75.8167213 Z M124.983871,103.645161 C109.855059,103.645161 97.5483871,91.3384892 97.5483871,76.2096774 L97.5483871,55.2460622 C97.5483871,49.8012378 100.898934,45.0098524 105.870424,43.0822833 C118.075881,54.6298357 133.977208,60.9677419 150.849019,60.9677419 L152.419355,60.9677419 L152.419355,76.2096774 C152.419355,91.3384892 140.112683,103.645161 124.983871,103.645161 Z M124.983871,109.741935 C129.288527,109.741935 133.390751,108.897973 137.177419,107.41248 L137.177419,111.324179 L124.983871,121.082591 L112.790323,111.324179 L112.790323,107.41248 C116.576991,108.897973 120.679215,109.741935 124.983871,109.741935 Z M109.131663,116.20785 L120.164204,125.03299 L108.473759,134.775028 L104.236084,117.837725 L109.131663,116.20785 Z M121.645232,146.322581 L128.32251,146.322581 L130.760624,170.709677 L119.207118,170.709677 L121.645232,146.322581 Z M129.355508,140.225806 L120.615211,140.225806 L117.56087,135.138215 L124.983871,128.952132 L132.406872,135.138215 L129.355508,140.225806 Z M129.803538,125.03299 L140.836079,116.20785 L145.728681,117.837725 L141.491006,134.775028 L129.803538,125.03299 Z M158.516129,58.480508 C162.055711,59.7427308 164.612903,63.0962546 164.612903,67.0645161 C164.612903,71.0327777 162.055711,74.3863014 158.516129,75.6485242 L158.516129,58.480508 Z M124.983871,6.09677419 C146.834614,6.09677419 164.612903,23.875063 164.612903,45.7258065 L164.612903,54.9498566 C162.832693,53.6027911 160.781581,52.5936084 158.516129,52.1336708 L158.516129,42.6774194 L152.419355,42.6774194 L152.419355,54.8709677 L150.849019,54.8709677 C134.981926,54.8709677 120.067454,48.6953047 108.848853,37.4737273 L107.629796,36.2546701 L105.955267,36.6744189 C98.4504003,38.5498914 92.946037,44.676435 91.7165604,52.1053902 C89.3513813,52.5444886 87.2020302,53.5506945 85.3548387,54.9498566 L85.3548387,45.7258065 C85.3548387,23.875063 103.133128,6.09677419 124.983871,6.09677419 L124.983871,6.09677419 Z M85.3548387,67.0645161 C85.3548387,63.0962546 87.9120308,59.7427308 91.4516129,58.480508 L91.4516129,75.6455471 C87.9120308,74.3863014 85.3548387,71.0327777 85.3548387,67.0645161 Z M81.5101199,75.8167213 C81.6083592,75.7095514 81.715529,75.5904738 81.8152566,75.4773501 C84.0955927,78.8919006 87.7349028,81.3091763 91.9904389,82.0444808 C93.6277566,91.3295585 99.0815117,99.304782 106.690572,104.279249 L106.690572,110.594829 L85.0080252,117.82284 C84.3248173,115.058751 82.7455504,113.305333 81.5101199,111.943383 C80.105004,110.393886 79.2580645,109.459126 79.2580645,107.281494 C79.2580645,105.105351 80.105004,104.17208 81.5145854,102.627048 C83.1325527,100.84386 85.3548387,98.3983037 85.3548387,93.8688886 C85.3548387,89.3394735 83.1325527,86.899871 81.5101199,85.1166835 C80.105004,83.5716511 79.2580645,82.6354034 79.2580645,80.465214 C79.2580645,78.2950242 80.105004,77.3617536 81.5101199,75.8167213 L81.5101199,75.8167213 Z M42.6774194,27.4354839 C57.8062311,27.4354839 70.1129032,39.742156 70.1129032,54.8709677 C70.1129032,61.6866732 67.6078077,68.1228186 63.0858352,73.1612903 L45.7258065,73.1612903 L45.7258065,69.55175 C49.2653885,68.2895273 51.8225806,64.9360035 51.8225806,60.9677419 C51.8225806,55.9262931 47.7188682,51.8225806 42.6774194,51.8225806 C40.9954481,51.8225806 39.6290323,50.4561648 39.6290323,48.7741935 C39.6290323,47.0922223 40.9954481,45.7258065 42.6774194,45.7258065 C44.3593906,45.7258065 45.7258065,47.0922223 45.7258065,48.7741935 L51.8225806,48.7741935 C51.8225806,44.805932 49.2653885,41.4524082 45.7258065,40.1901855 L45.7258065,33.5322581 L39.6290323,33.5322581 L39.6290323,40.1901855 C36.0894502,41.4524082 33.5322581,44.805932 33.5322581,48.7741935 C33.5322581,53.8156424 37.6359705,57.9193548 42.6774194,57.9193548 C44.3593906,57.9193548 45.7258065,59.2857707 45.7258065,60.9677419 C45.7258065,62.6497131 44.3593906,64.016129 42.6774194,64.016129 C40.9954481,64.016129 39.6290323,62.6497131 39.6290323,60.9677419 L33.5322581,60.9677419 C33.5322581,64.9360035 36.0894502,68.2895273 39.6290323,69.55175 L39.6290323,73.1612903 L22.2690035,73.1612903 C17.747031,68.1228186 15.2419355,61.6866732 15.2419355,54.8709677 C15.2419355,39.742156 27.5486076,27.4354839 42.6774194,27.4354839 Z M79.2580645,170.709677 L79.2580645,173.758065 C79.2580645,178.799513 75.1543521,182.903226 70.1129032,182.903226 L15.2419355,182.903226 C10.2004866,182.903226 6.09677419,178.799513 6.09677419,173.758065 L6.09677419,88.4032258 C6.09677419,83.3617769 10.2004866,79.2580645 15.2419355,79.2580645 L70.1129032,79.2580645 C71.1771596,79.2580645 72.2161116,79.4619848 73.2014791,79.816241 C73.1910597,80.0350458 73.1612903,80.2359894 73.1612903,80.465214 C73.1612903,84.9946291 75.3835763,87.4342316 77.0060091,89.2174191 C78.411125,90.7624511 79.2580645,91.6986992 79.2580645,93.8688886 C79.2580645,96.0450323 78.411125,96.9783029 77.0015436,98.5233352 C75.3835763,100.306522 73.1612903,102.752079 73.1612903,107.281494 C73.1612903,111.815374 75.3835763,114.256466 77.0015436,116.039653 C78.1819004,117.339088 78.9320894,118.247054 79.1568485,119.771248 L75.5577273,120.972444 C74.7226955,121.249299 73.9412487,121.61844 73.1612903,121.98758 L73.1612903,115.83871 L12.1935484,115.83871 L12.1935484,170.709677 C12.1935484,174.072132 14.9278682,176.806452 18.2903226,176.806452 L73.1612903,176.806452 L73.1612903,170.709677 L67.0645161,170.709677 L67.0645161,141.214151 C67.0645161,134.644043 71.2530716,128.831567 77.4867847,126.755151 L98.4384925,119.771248 L104.913338,145.676585 L112.820092,139.088615 L115.753867,143.97824 L113.080574,170.709677 L91.4516129,170.709677 L91.4516129,169.447455 L88.7723664,166.768208 C86.5991998,164.595042 85.3548387,161.588332 85.3548387,158.516129 C85.3548387,155.443926 86.5991998,152.437216 88.7723664,150.26405 L91.4516129,147.584803 L91.4516129,140.225806 L85.3548387,140.225806 L85.3548387,145.060358 L84.4617566,145.95344 C81.1543754,149.260821 79.2580645,153.839355 79.2580645,158.516129 C79.2580645,163.027682 81.0352978,167.432066 84.1298276,170.709677 L79.2580645,170.709677 Z M60.9677419,170.709677 L54.8709677,170.709677 L54.8709677,158.516129 L60.9677419,158.516129 L60.9677419,170.709677 Z M36.5806452,134.129032 L36.5806452,121.935484 L48.7741935,121.935484 L48.7741935,134.129032 L36.5806452,134.129032 Z M48.7741935,140.225806 L48.7741935,152.419355 L36.5806452,152.419355 L36.5806452,140.225806 L48.7741935,140.225806 Z M30.483871,134.129032 L18.2903226,134.129032 L18.2903226,121.935484 L30.483871,121.935484 L30.483871,134.129032 Z M18.2903226,140.225806 L30.483871,140.225806 L30.483871,152.419355 L18.2903226,152.419355 L18.2903226,140.225806 Z M18.2903226,158.516129 L30.483871,158.516129 L30.483871,170.709677 L18.2903226,170.709677 L18.2903226,158.516129 Z M36.5806452,158.516129 L48.7741935,158.516129 L48.7741935,170.709677 L36.5806452,170.709677 L36.5806452,158.516129 Z M60.9677419,141.214151 L60.9677419,152.419355 L54.8709677,152.419355 L54.8709677,140.225806 L61.0466308,140.225806 C61.0317463,140.557735 60.9677419,140.877757 60.9677419,141.214151 Z M62.2091259,134.129032 L54.8709677,134.129032 L54.8709677,121.935484 L67.0645161,121.935484 L67.0645161,126.27884 C64.8913495,128.495172 63.2451012,131.181861 62.2091259,134.129032 Z M182.903226,170.709677 L165.837914,170.709677 C168.932444,167.432066 170.709677,163.027682 170.709677,158.516129 C170.709677,153.839355 168.813366,149.260821 165.505985,145.95344 L164.612903,145.060358 L164.612903,140.225806 L158.516129,140.225806 L158.516129,147.584803 L161.195376,150.26405 C163.368542,152.437216 164.612903,155.443926 164.612903,158.516129 C164.612903,161.588332 163.368542,164.595042 161.195376,166.768208 L158.516129,169.447455 L158.516129,170.709677 L136.887168,170.709677 L134.213875,143.975263 L137.14765,139.085638 L145.054404,145.673608 L151.529249,119.768271 L172.480957,126.752174 C178.71467,128.834544 182.903226,134.644043 182.903226,141.214151 L182.903226,170.709677 Z" id="Shape"></path>
                <path d="M12,86 L12,110 L73,110 L73,86 L12,86 Z M66.9,104 L18.1,104 L18.1,92 L66.9,92 L66.9,104 Z" id="Shape"></path>
            </g>
        </g>
    </g>
</svg>