<?xml version="1.0" encoding="UTF-8"?>
<svg width="245px" height="216px" viewBox="0 0 245 216" version="1.1" xmlns="http://www.w3.org/2000/svg" xmlns:xlink="http://www.w3.org/1999/xlink">
    <!-- Generator: Sketch 58 (84663) - https://sketch.com -->
    <title>1 copy 2</title>
    <desc>Created with Sketch.</desc>
    <g id="Page-1" stroke="none" stroke-width="1" fill="none" fill-rule="evenodd">
        <g id="1-copy-2" transform="translate(-6.000000, 0.000000)">
            <path d="M136.580337,221 C192.35187,221 244,173.101364 244,117.36284 C244,61.6243155 230.88791,23 175.116377,23 C119.344845,23 38,70.8066481 38,126.545172 C38,182.283697 80.8088048,221 136.580337,221 Z" id="Oval" fill="#F3E9E4" transform="translate(141.000000, 122.000000) rotate(-170.000000) translate(-141.000000, -122.000000) "></path>
            <path d="M217.656725,214.181895 C221.988495,214.181895 226,210.553211 226,206.330595 C226,202.10798 221.810136,199 217.478366,199 C213.146597,199 210,202.803611 210,207.026227 C210,211.248842 213.324956,214.181895 217.656725,214.181895 Z" id="Oval-Copy" fill="#F3E9E4" transform="translate(218.000000, 206.590948) rotate(-280.000000) translate(-218.000000, -206.590948) "></path>
            <path d="M21.3563598,80.8699536 C29.4784276,80.8699536 37,74.0964092 37,66.2141936 C37,58.331978 32.3683522,48 24.2462843,48 C16.1242165,48 7,59.6304897 7,67.5127053 C7,75.3949208 13.234292,80.8699536 21.3563598,80.8699536 Z" id="Oval-Copy-3" fill="#F3E9E4" transform="translate(22.000000, 64.434977) rotate(-145.000000) translate(-22.000000, -64.434977) "></path>
            <path d="M36.5279972,26 C42.4841803,26 48,20.9198417 48,15.00818 C48,9.09651831 46.5996797,5 40.6434966,5 C34.6873135,5 26,10.0704021 26,15.9820637 C26,21.8937254 30.5718141,26 36.5279972,26 Z" id="Oval-Copy-2" fill="#F3E9E4" transform="translate(37.000000, 15.500000) rotate(-280.000000) translate(-37.000000, -15.500000) "></path>
            <g id="002-smartphone" transform="translate(92.000000, 0.000000)" fill="#F69946" fill-rule="nonzero">
                <path d="M141.125105,156 L100.874895,156 C99.2870149,156 98,157.343373 98,159 C98,160.656979 99.2873518,162 100.874895,162 L141.125105,162 C142.712985,162 144,160.656627 144,159 C144,157.343373 142.712985,156 141.125105,156 Z" id="Shape_15_"></path>
                <path d="M36.4254028,116.157785 C32.1269885,118.066187 29.2358576,122.185066 28.9089369,126.866532 C28.9089369,134.939736 39.0675319,141.283283 52.0362897,141.283283 C65.0050476,141.283283 75.1636425,134.939736 75.1636425,126.866532 C74.8346892,122.170875 71.930346,118.041521 67.6153315,116.134808 C73.4626385,111.284736 78.8888446,105.950805 83.8363575,100.190119 L83.8363575,158.583249 C83.8458433,166.541233 90.3117588,172.990201 98.2909953,173 L144.545362,173 C152.52426,172.990539 158.990175,166.541571 159,158.583249 L159,72.0834178 C158.990514,64.1254333 152.524599,57.6764655 144.545362,57.6666667 L103.745998,57.6666667 C103.952313,55.7511685 104.0614,53.8265472 104.072579,51.8998986 C104.072579,23.236355 80.7751601,0 52.0362897,0 C23.2974193,0 0,23.236355 0,51.8998986 C0,80.8830862 21.4419326,103.73053 36.4254028,116.157785 Z M69.3817196,126.866532 C69.3817196,130.958041 62.2585749,135.516515 52.0362897,135.516515 C41.8140045,135.516515 34.6908598,130.958041 34.6908598,126.866532 C34.6908598,124.361077 37.2926743,121.812036 41.4294916,120.139818 C46.4393396,123.940067 50.0124304,126.131283 50.5388913,126.451265 C51.4593509,127.007094 52.6132285,127.007094 53.5340269,126.451265 C53.8809355,126.240759 57.4916307,124.029269 62.6142917,120.127992 C66.7626275,121.797506 69.3817196,124.352292 69.3817196,126.866532 L69.3817196,126.866532 Z M153.218077,72.0830799 L153.218077,158.582911 C153.218077,163.359999 149.335004,167.232894 144.545362,167.232894 L98.2909953,167.232894 C93.501353,167.232894 89.6182804,163.359999 89.6182804,158.582911 L89.6182804,72.0830799 C89.6192967,67.9601466 92.5375298,64.4112883 96.5910077,63.6030555 L99.8896884,70.1858278 C101.35016,73.123781 104.358169,74.9777832 107.646009,74.966295 L135.190687,74.966295 C138.478527,74.9777832 141.486536,73.123781 142.947008,70.1858278 L146.245689,63.6030555 C150.298828,64.4112883 153.217061,67.9604845 153.218077,72.0830799 L153.218077,72.0830799 Z M102.968502,63.4330968 L139.867855,63.4330968 L137.774885,67.6053621 C137.288739,68.5849051 136.286295,69.2032437 135.190348,69.1998786 L107.64567,69.1998786 C106.549724,69.2032437 105.54728,68.5849051 105.061133,67.6053621 L102.968502,63.4330968 Z M52.0362897,5.76676803 C77.5693046,5.79684024 98.2605053,26.4338077 98.2906565,51.8998986 C98.277783,53.8400628 98.1551454,55.7778618 97.9234213,57.7041725 C90.0986675,57.9025139 83.8539739,64.2764702 83.8360187,72.0834178 L83.8360187,90.9258517 C74.9312409,102.470538 64.1889315,112.480528 52.0359509,120.557788 C43.9418687,115.214734 5.78192289,88.1031189 5.78192289,51.8998986 C5.81207413,26.4338077 26.5032749,5.79684024 52.0362897,5.76676803 L52.0362897,5.76676803 Z" id="Shape_14_"></path>
                <path d="M84,52 C84,34.3269946 69.6729291,20 51.9998295,20 C34.32673,20 20,34.3269946 20,52 C20,69.6730054 34.3270709,84 52.0001705,84 C69.6644064,83.9792046 83.9792045,69.6644827 84,52 Z M25.8179649,52 C25.8179649,37.5403923 37.5401448,25.8182748 51.9998295,25.8182748 C66.4595143,25.8182748 78.1816942,37.5403923 78.1816942,52 C78.1816942,66.4596077 66.4595143,78.1817252 51.9998295,78.1817252 C37.5473039,78.163998 25.8356922,66.4524487 25.8179649,52 L25.8179649,52 Z" id="Shape_13_"></path>
                <path d="M140.283952,96.7821411 C141.373771,95.6539063 141.358269,93.8601208 140.248906,92.7510943 C139.139542,91.6417308 137.346094,91.6262294 136.217859,92.7160476 L135.090635,93.8432714 C126.806803,87.3855762 115.193533,87.3855762 106.909365,93.8432714 L105.782141,92.7160476 C104.653906,91.6262294 102.860121,91.6417308 101.751094,92.7510943 C100.641731,93.8604578 100.626229,95.6539063 101.716048,96.7821411 L102.843271,97.909365 C96.3855762,106.193197 96.3855762,117.806467 102.843271,126.090635 L101.716048,127.217859 C100.968609,127.940024 100.66869,129.008948 100.931877,130.01452 C101.195065,131.020091 101.980246,131.804935 102.98548,132.068123 C103.990715,132.33131 105.059976,132.031391 105.782141,131.283952 L106.909365,130.156729 C115.193197,136.614424 126.806467,136.614424 135.090635,130.156729 L136.217859,131.283952 C137.346094,132.373771 139.139879,132.358269 140.248906,131.248906 C141.358269,130.139542 141.373771,128.346094 140.283952,127.217859 L139.156729,126.090635 C145.614424,117.806803 145.614424,106.193533 139.156729,97.909365 L140.283952,96.7821411 Z M138.250925,112.002864 C138.256297,115.585044 137.136487,119.078258 135.050197,121.989832 L134.53292,121.472219 C133.404686,120.3824 131.6109,120.397902 130.501874,121.507265 C129.39251,122.616629 129.377009,124.410077 130.466827,125.538312 L130.98444,126.055925 C125.010322,130.323537 116.984623,130.323537 111.010168,126.055925 L111.527781,125.538312 C112.6176,124.410077 112.602098,122.616292 111.492735,121.507265 C110.383371,120.397902 108.589923,120.3824 107.461688,121.472219 L106.944075,121.989832 C102.676463,116.015714 102.676463,107.990015 106.944075,102.01556 L107.461688,102.533173 C108.589923,103.622991 110.383708,103.60749 111.492735,102.498126 C112.602098,101.388763 112.6176,99.5953144 111.527781,98.4670796 L111.010168,97.9494665 C116.984286,93.6818543 125.009985,93.6818543 130.98444,97.9494665 L130.466827,98.4670796 C129.719388,99.1892442 129.419469,100.258169 129.682656,101.26374 C129.945844,102.269312 130.731025,103.054493 131.73626,103.317344 C132.741494,103.580531 133.810756,103.280612 134.53292,102.533173 L135.050534,102.01556 C137.136824,104.927471 138.256297,108.420685 138.250925,112.002864 Z" id="Shape_12_"></path>
                <circle id="Oval" cx="121" cy="112" r="3"></circle>
            </g>
        </g>
    </g>
</svg>