<?xml version="1.0" encoding="UTF-8"?>
<svg width="275px" height="222px" viewBox="0 0 275 222" version="1.1" xmlns="http://www.w3.org/2000/svg" xmlns:xlink="http://www.w3.org/1999/xlink">
    <!-- Generator: Sketch 58 (84663) - https://sketch.com -->
    <title>6</title>
    <desc>Created with Sketch.</desc>
    <g id="Page-1" stroke="none" stroke-width="1" fill="none" fill-rule="evenodd">
        <g id="6" transform="translate(-2.000000, -1.000000)">
            <path d="M126.335503,223.298164 C184.364589,237.765942 216.376381,181.935718 234.905823,133.581664 C253.435265,85.227611 222.358004,17.7904622 159.692968,18 C97.0279315,18.2134805 14.2365842,61.2089559 23.7518111,115.172489 C33.267038,169.136023 68.3064172,208.830387 126.335503,223.298164 Z" id="Oval" fill="#F8F1F0" transform="translate(131.610277, 121.812135) rotate(-170.000000) translate(-131.610277, -121.812135) "></path>
            <path d="M216.656725,222.181895 C220.988495,222.181895 225,218.553211 225,214.330595 C225,210.10798 220.810136,207 216.478366,207 C212.146597,207 209,210.803611 209,215.026227 C209,219.248842 212.324956,222.181895 216.656725,222.181895 Z" id="Oval-Copy" fill="#F8F1F0" transform="translate(217.000000, 214.590948) rotate(-280.000000) translate(-217.000000, -214.590948) "></path>
            <path d="M42.3563598,46.8699536 C50.4784276,46.8699536 58,40.0964092 58,32.2141936 C58,24.331978 53.3683522,14 45.2462843,14 C37.1242165,14 28,25.6304897 28,33.5127053 C28,41.3949208 34.234292,46.8699536 42.3563598,46.8699536 Z" id="Oval-Copy-3" fill="#F8F1F0" transform="translate(43.000000, 30.434977) rotate(-145.000000) translate(-43.000000, -30.434977) "></path>
            <path d="M12.5279972,88 C18.4841803,88 24,82.9198417 24,77.00818 C24,71.0965183 22.5996797,67 16.6434966,67 C10.6873135,67 2,72.0704021 2,77.9820637 C2,83.8937254 6.57181411,88 12.5279972,88 Z" id="Oval-Copy-2" fill="#F8F1F0" transform="translate(13.000000, 77.500000) rotate(-280.000000) translate(-13.000000, -77.500000) "></path>
            <g id="007-vegetable-box" transform="translate(92.000000, 1.000000)" fill="#F69946" fill-rule="nonzero">
                <path d="M184.999923,49.1434648 C185.014395,44.169096 182.996926,39.4028481 179.411308,35.9406104 C185.238203,29.5294222 186.643053,20.2650917 182.977153,12.4255154 C179.311254,4.58593917 171.287843,-0.303615077 162.61181,0.0146529074 C153.935777,0.332920892 146.29513,5.7970889 143.218015,13.8840231 C136.444508,10.8644652 128.515085,12.169906 123.077095,17.1998731 C117.639106,22.2298402 115.74551,30.0103791 118.267317,36.9626232 C110.532612,37.8069032 104.149295,43.3707559 102.28256,50.8953222 C100.110858,49.7026873 97.8284627,48.7220535 95.4672427,47.9671135 C101.6023,44.4442023 104.833245,39.5702532 104.833245,33.7863979 C104.833245,32.0901031 103.452791,30.7149845 101.749914,30.7149845 C100.047038,30.7149845 98.6665837,32.0901031 98.6665837,33.7863979 C98.6665837,40.4148919 91.031486,43.7742503 86.3332608,45.2139753 L86.3332608,27.6435711 C86.3332608,25.9472764 84.9528066,24.5721577 83.24993,24.5721577 C81.5470535,24.5721577 80.1665993,25.9472764 80.1665993,27.6435711 L80.1665993,45.2139753 C75.4683741,43.7742503 67.8332763,40.4148919 67.8332763,33.7863979 C67.8332763,32.0901031 66.4528221,30.7149845 64.7499456,30.7149845 C63.047069,30.7149845 61.6666148,32.0901031 61.6666148,33.7863979 C61.6666148,40.7251046 66.160184,45.1755826 71.0002424,47.9575153 C67.0915918,49.195306 63.4120502,51.060516 60.1068349,53.4795326 C60.5750511,45.8774448 56.9510315,38.6005406 50.5912908,34.3726539 L58.0652845,23.2046109 C58.1362427,23.0985838 58.2005997,22.9883174 58.2579927,22.874434 C60.0517204,19.3008445 60.3434805,12.800582 53.7960277,9.53950888 C50.8529885,8.07290899 47.892991,7.97270413 45.2837224,9.21125157 C43.8283902,4.59453334 40.5134243,0 33.9166382,0 C27.319852,0 24.0048861,4.59453334 22.5499394,9.21125157 C19.9402853,7.9723202 16.9802878,8.07329292 14.037634,9.53950888 C7.4901812,12.800582 7.78194138,19.3008445 9.57566904,22.874434 C9.63306199,22.9883174 9.69741908,23.0985838 9.76837721,23.2046109 L18.2340472,35.8546109 C17.5971362,36.3920595 16.9922869,36.9661119 16.4225904,37.5738345 C12.3462424,41.9526191 10.2747483,47.8189069 10.7014702,53.7755401 L13.0528953,86.0004253 L9.24999223,86.0004253 C4.14136258,86.0004253 0,90.1257812 0,95.2146655 C0,100.30355 4.14136258,104.428906 9.24999223,104.428906 L9.72135641,104.428906 L18.0602244,154.267579 C13.9788701,155.944383 11.6559687,160.260561 12.5131007,164.574678 C13.3702326,168.888795 17.1684558,171.998206 21.5833152,172 L163.416529,172 C167.831461,172 171.629855,168.889036 172.487091,164.574866 C173.344328,160.260697 171.021427,155.944411 166.940006,154.267579 L175.278874,104.428906 L175.749852,104.428906 C180.858482,104.428906 184.999923,100.30355 184.999923,95.2146655 C184.999923,90.1257812 180.858482,86.0004253 175.749852,86.0004253 L167.940932,86.0004253 C172.618185,80.8014489 173.946867,73.4170192 171.37345,66.9234929 C179.413101,64.7243196 184.989202,57.4484973 184.999923,49.1434648 Z M83.24068,52.2148782 L83.2580238,52.2148782 C100.254884,52.2191014 114.083237,64.6176293 114.083237,79.8575986 C114.08253,81.9289302 113.824524,83.9922155 113.315103,86.0004253 L57.5453579,86.0004253 L59.4184813,62.3236675 C65.3057159,55.8902082 73.9282504,52.2175657 83.24068,52.2148782 Z M15.0424144,20.0114928 C14.793043,19.3850893 14.6587102,18.7191422 14.645821,18.0454043 C14.645821,17.1416409 14.890175,15.9825663 16.7956734,15.0334996 C18.6418177,14.1143791 19.686296,14.5574305 20.390837,15.0461691 C21.008284,15.4975391 21.5251918,16.0714042 21.908992,16.7316072 C22.5478187,18.0039845 23.9801992,18.6728367 25.370634,18.348026 C26.7610688,18.0232153 27.7456085,16.7897618 27.7499767,15.3671318 C27.8058752,13.594105 28.1454574,11.8413238 28.7559133,10.1749075 C30.1611413,6.56138968 32.3749728,6.14367746 33.9166382,6.14367746 C35.4583035,6.14367746 37.672135,6.56138968 39.077363,10.1749075 C39.6867786,11.8384234 40.0263436,13.5880057 40.0832996,15.3579176 C40.0742184,16.7815257 41.0498228,18.024178 42.4390252,18.3584655 C43.8282275,18.692753 45.2657133,18.0307689 45.9100239,16.7600178 C46.2941501,16.0877408 46.8163235,15.5037437 47.4424393,15.0461691 C48.1465949,14.5566626 49.1910732,14.1143791 51.0376029,15.0334996 C52.8841326,15.95262 53.1573928,17.0518021 53.1855128,17.9060389 C53.193525,18.626977 53.0594225,19.3425133 52.7904765,20.0118767 L44.9734622,31.6924618 C42.8999797,31.0466253 40.7403235,30.7170686 38.5678426,30.7149845 L32.2273583,30.7149845 C29.2042641,30.718581 26.21562,31.3545207 23.454897,32.581636 L15.0424144,20.0114928 Z M18.787505,79.8575986 L30.8333074,79.8575986 C32.536184,79.8575986 33.9166382,78.48248 33.9166382,76.7861852 C33.9166382,75.0898904 32.536184,73.7147718 30.8333074,73.7147718 L18.3392658,73.7147718 L17.442402,61.4291183 L30.8333074,61.4291183 C32.536184,61.4291183 33.9166382,60.0539997 33.9166382,58.3577049 C33.9166382,56.6614102 32.536184,55.2862915 30.8333074,55.2862915 L16.9941628,55.2862915 L16.8511733,53.3282655 C16.5406352,49.0727646 18.0213834,44.8803955 20.9384719,41.7560997 C23.8555603,38.6318038 27.946001,36.8572498 32.2292854,36.8578111 L38.5697697,36.8578111 C42.8690101,36.8578111 46.9729865,38.6459825 49.8911936,41.7909203 C52.8094007,44.9358581 54.2767225,49.1517849 53.9390172,53.4211758 L51.359811,86.0004253 L19.2361297,86.0004253 L18.787505,79.8575986 Z M144.916545,153.57152 L144.916545,141.285866 L162.859988,141.285866 L160.804177,153.57152 L144.916545,153.57152 Z M24.1952817,153.57152 L22.1398564,141.285866 L40.0832996,141.285866 L40.0832996,153.57152 L24.1952817,153.57152 Z M64.7499456,122.857386 L64.7499456,135.143039 L21.111951,135.143039 L19.0565256,122.857386 L64.7499456,122.857386 Z M114.083237,122.857386 L114.083237,135.143039 L70.9166071,135.143039 L70.9166071,122.857386 L114.083237,122.857386 Z M46.2499611,141.285866 L89.4165915,141.285866 L89.4165915,153.57152 L46.2499611,153.57152 L46.2499611,141.285866 Z M95.583253,141.285866 L138.749883,141.285866 L138.749883,153.57152 L95.583253,153.57152 L95.583253,141.285866 Z M163.887508,135.143039 L120.249899,135.143039 L120.249899,122.857386 L165.943319,122.857386 L163.887508,135.143039 Z M95.583253,116.714559 L95.583253,104.428906 L138.749883,104.428906 L138.749883,116.714559 L95.583253,116.714559 Z M89.4165915,116.714559 L46.2499611,116.714559 L46.2499611,104.428906 L89.4165915,104.428906 L89.4165915,116.714559 Z M40.0832996,116.714559 L18.0286203,116.714559 L15.9731949,104.428906 L40.0832996,104.428906 L40.0832996,116.714559 Z M163.416529,165.857173 L21.5833152,165.857173 C19.8804386,165.857173 18.4999845,164.482055 18.4999845,162.78576 C18.4999845,161.089465 19.8804386,159.714346 21.5833152,159.714346 L163.416529,159.714346 C165.119406,159.714346 166.49986,161.089465 166.49986,162.78576 C166.49986,164.482055 165.119406,165.857173 163.416529,165.857173 Z M166.970839,116.714559 L144.916545,116.714559 L144.916545,104.428906 L169.02665,104.428906 L166.970839,116.714559 Z M178.833183,95.2146655 C178.831271,96.9101709 177.451936,98.2841746 175.749852,98.2860789 L9.24999223,98.2860789 C7.54711568,98.2860789 6.16666148,96.9109603 6.16666148,95.2146655 C6.16666148,93.5183707 7.54711568,92.1432521 9.24999223,92.1432521 L175.749852,92.1432521 C177.451936,92.1451563 178.831271,93.5191601 178.833183,95.2146655 Z M173.034209,38.7256145 C177.699185,41.6303153 179.868828,47.2614899 178.352672,52.5293541 C176.836515,57.7972182 172.001213,61.4278377 166.49986,61.4291183 C165.331286,61.4285721 164.262822,62.0861366 163.740383,63.1273827 C163.217944,64.1686287 163.33132,65.4145995 164.033195,66.3452993 C166.83496,70.0680612 167.285155,75.048029 165.196136,79.2095125 C163.107117,83.370996 158.837361,86.0004253 154.166537,86.0004253 L120.138128,86.0004253 L129.107537,73.7147718 L141.833214,73.7147718 C143.536091,73.7147718 144.916545,72.3396532 144.916545,70.6433584 C144.916545,68.9470637 143.536091,67.5719451 141.833214,67.5719451 L133.592627,67.5719451 L142.562036,55.2862915 L154.166537,55.2862915 C155.869414,55.2862915 157.249868,53.9111729 157.249868,52.2148782 C157.249868,50.5185834 155.869414,49.1434648 154.166537,49.1434648 L147.047126,49.1434648 L165.910173,23.3071194 C166.899837,21.9351035 166.591299,20.0244778 165.219617,19.0308427 C163.847935,18.0372077 161.92817,18.3336691 160.922886,19.6943694 L147.537376,38.0295555 L144.566201,32.3658692 C143.77777,30.8623159 141.915019,30.2801251 140.405632,31.0655096 C138.896245,31.850894 138.311795,33.7064447 139.100227,35.209998 L143.487421,43.576528 L132.862263,58.1273489 L129.169975,50.8327421 C128.678967,49.844634 127.693957,49.1944909 126.589081,49.1292577 C125.484206,49.0640245 124.428995,49.5937103 123.824252,50.5171239 C123.219508,51.4405375 123.158021,52.6159925 123.663146,53.5970142 L128.783402,63.7150177 L119.980107,75.7745384 C118.876661,67.446785 114.44206,60.043143 107.932378,54.7104015 C108.101618,51.0831661 109.873728,47.7165225 112.772588,45.5149998 C115.671448,43.3134772 119.39979,42.5028339 122.955907,43.3008687 C124.233266,43.5856614 125.551921,43.0360098 126.245,41.9298846 C126.938078,40.8237595 126.854503,39.4022736 126.03654,38.3843037 C124.278153,36.2128933 123.32359,33.5047875 123.33323,30.7149845 C123.340876,23.932963 128.858216,18.4369479 135.666553,18.429331 C138.415132,18.420731 141.086135,19.3367092 143.246921,21.0288985 C144.107767,21.6996834 145.260764,21.8663895 146.277532,21.4670793 C147.2943,21.0677691 148.022883,20.1621197 148.192584,19.0866134 C149.279973,12.2709424 154.797919,7.01490673 161.681823,6.23764322 C168.565727,5.46037972 175.12466,9.35281166 177.715873,15.7531308 C180.307086,22.1534499 178.294084,29.4895126 172.794865,33.6869609 C171.993994,34.299725 171.54511,35.264312 171.593224,36.269115 C171.641338,37.2739181 172.180351,38.1915657 173.036136,38.7256145 L173.034209,38.7256145 Z" id="Shape"></path>
            </g>
        </g>
    </g>
</svg>