<?xml version="1.0" encoding="UTF-8"?>
<svg width="260px" height="214px" viewBox="0 0 260 214" version="1.1" xmlns="http://www.w3.org/2000/svg" xmlns:xlink="http://www.w3.org/1999/xlink">
    <!-- Generator: Sketch 58 (84663) - https://sketch.com -->
    <title>8</title>
    <desc>Created with Sketch.</desc>
    <g id="Page-1" stroke="none" stroke-width="1" fill="none" fill-rule="evenodd">
        <g id="8" transform="translate(-6.000000, -11.000000)">
            <path d="M109.197746,219.186255 C167.226832,233.654032 213.622429,178.491752 224.876939,127.143843 C236.13145,75.7959349 158.158975,6.35996976 88.3314148,18.6724526 C18.5038544,30.9849355 32.3011672,53.6215625 21.7921603,105.819195 C11.2831535,158.016827 51.1686606,204.718478 109.197746,219.186255 Z" id="Oval" fill="#F8F1F0" transform="translate(123.038709, 119.383283) rotate(-170.000000) translate(-123.038709, -119.383283) "></path>
            <path d="M21.6567252,201.181895 C25.9884947,201.181895 30,197.553211 30,193.330595 C30,189.10798 25.8101356,186 21.4783661,186 C17.1465966,186 14,189.803611 14,194.026227 C14,198.248842 17.3249557,201.181895 21.6567252,201.181895 Z" id="Oval-Copy" fill="#F8F1F0" transform="translate(22.000000, 193.590948) rotate(-280.000000) translate(-22.000000, -193.590948) "></path>
            <path d="M21.3563598,51.8699536 C29.4784276,51.8699536 37,45.0964092 37,37.2141936 C37,29.331978 32.3683522,19 24.2462843,19 C16.1242165,19 7,30.6304897 7,38.5127053 C7,46.3949208 13.234292,51.8699536 21.3563598,51.8699536 Z" id="Oval-Copy-3" fill="#F8F1F0" transform="translate(22.000000, 35.434977) rotate(-145.000000) translate(-22.000000, -35.434977) "></path>
            <path d="M229.527997,213 C235.48418,213 241,207.919842 241,202.00818 C241,196.096518 239.59968,192 233.643497,192 C227.687313,192 219,197.070402 219,202.982064 C219,208.893725 223.571814,213 229.527997,213 Z" id="Oval-Copy-2" fill="#F8F1F0" transform="translate(230.000000, 202.500000) rotate(-280.000000) translate(-230.000000, -202.500000) "></path>
            <g id="001-delivery-man" transform="translate(174.500000, 97.500000) scale(-1, 1) translate(-174.500000, -97.500000) translate(83.000000, 11.000000)" fill="#F69946" fill-rule="nonzero">
                <path d="M173.288453,51.4621 L142.255178,51.4621 C136.899905,51.4621 132.542915,55.821441 132.542915,61.180185 L132.542915,96.9006172 L120.935237,96.9006172 C121.580386,94.5554518 121.819503,91.7892218 121.662594,88.5701151 L121.662594,88.5697577 C121.41061,74.9659399 118.942245,63.500687 114.325409,54.4924783 C110.740454,47.4984452 106.556814,43.3053139 102.966855,40.7985855 C107.180518,36.4660525 109.616715,30.3027106 109.616715,23.1942967 C109.616715,10.4047277 99.4147827,0 86.8753024,0 C74.335822,0 64.1338898,10.4047277 64.1338898,23.1942967 C64.1338898,24.6751715 65.3341171,25.8750984 66.8145643,25.8750984 L68.6359932,25.8750984 C68.4683617,26.8866543 68.3790059,27.9175119 68.3790059,28.9644543 C68.3790059,37.9776672 74.8190583,45.5107201 83.3335953,47.1989103 C82.4411094,50.5130962 81.9975471,54.4209902 81.9993342,58.8603979 L75.3133747,64.6112538 L59.0452548,65.9269913 L40.2794612,59.7232586 C38.5595405,59.1513542 36.610154,58.5051023 34.9188271,59.7246884 C33.2521624,60.9274748 33.2521624,63.0331552 33.2521624,63.724802 L33.2521624,77.6774815 C33.2521624,79.1583564 34.4523898,80.3582832 35.9328369,80.3582832 L39.1242692,80.3582832 L34.2293576,97.2737848 C33.8179635,98.695682 34.6371776,100.182633 36.0593648,100.594047 C37.4822668,101.007605 38.9680753,100.186208 39.3798269,98.7643105 L44.7061483,80.3582832 L52.3271272,80.3582832 C42.8482622,109.26519 48.256791,128.560528 56.5700987,148.087846 L51.7513183,148.087846 L31.6809298,125.645603 L35.9249736,110.983405 C36.3367252,109.56115 35.5175111,108.074556 34.0953239,107.663143 C32.6731368,107.251729 31.1866134,108.070982 30.7748618,109.492879 L26.7156058,123.517761 C14.1607562,123.308301 2.93051731,131.964789 0.0686292414,144.419079 C-0.262702124,145.861708 0.637647077,147.300047 2.07984994,147.631752 L5.88533543,148.50748 C4.91314415,158.605882 11.563004,168.133451 21.7045316,170.467893 C23.2446685,170.822832 24.79803,170.997977 26.3406688,170.997977 C30.145082,170.997977 33.8826571,169.931376 37.1884648,167.859295 C41.0682944,165.427986 43.9591337,161.853584 45.5235753,157.629355 L48.5262882,158.320287 C49.4209186,158.527245 50.2694414,158.631975 51.1172494,158.175524 C51.9060826,157.750885 52.4304225,156.984176 52.6270053,156.118813 C52.8157248,155.241297 52.9594089,154.349484 53.05913,153.449449 L109.123828,153.449449 C110.916663,164.596938 120.40089,173 131.72799,173 C143.055091,173 152.539675,164.596938 154.33251,153.449449 L156.3784,153.449449 C156.3784,153.449449 156.784433,153.454096 156.877006,153.454096 C157.643679,153.454096 158.750976,153.369025 159.660261,152.44397 C160.115261,151.981085 160.649251,151.152896 160.608147,149.837158 C160.532731,147.319707 160.154935,144.887326 159.510143,142.575402 C161.64539,129.61176 159.590921,121.716263 156.545317,115.537193 C158.470756,114.275072 159.747472,112.100406 159.747472,109.629779 L159.747472,102.261863 L173.287738,102.261863 C178.64301,102.261863 183,97.9025221 183,92.5437782 L183,61.1798276 C183,55.821441 178.644083,51.4621 173.288453,51.4621 Z M34.3415885,163.316944 C30.9099678,165.467662 26.8496395,166.151445 22.9079758,165.243904 L22.9076184,165.243904 C15.6526409,163.573944 10.8124151,156.920909 11.1651919,149.727066 L40.2426466,156.419777 C39.0395599,159.252491 37.0040344,161.648413 34.3415885,163.316944 L34.3415885,163.316944 Z M47.7549688,152.641634 L6.05618375,143.045794 C9.27406539,134.233462 17.9337162,128.400038 27.3993565,128.901884 L47.8264534,151.742672 C47.8085823,152.043994 47.7849923,152.343529 47.7549688,152.641634 Z M88.2456632,105.925983 C87.4675527,107.978405 87.4675527,110.508724 87.4675527,114.011281 L87.4675527,124.127555 L77.6516376,124.127555 L77.6516376,110.248865 C77.6516376,94.5579539 86.2147842,91.7616989 90.0577991,91.3002436 L116.338774,91.3002436 C116.232977,94.8614206 115.429489,97.3928124 113.904007,98.9995062 C112.126184,100.871778 109.084154,101.783966 104.603496,101.788255 L94.9813046,101.798263 C91.5500412,101.798621 89.2839778,103.186919 88.2456632,105.925983 L88.2456632,105.925983 Z M87.4675527,129.488801 L87.4675527,135.88984 C87.4432479,135.88984 87.4182283,135.88984 87.3924938,135.88984 L68.3514843,135.88984 C68.5655809,133.904617 69.1839231,132.368339 70.1993626,131.305312 C71.7098333,129.724711 73.8372166,129.488801 74.9709632,129.488801 L87.4675527,129.488801 Z M116.220467,85.9389976 L91.8416986,85.9389976 C90.8627163,82.8582202 89.9898887,79.4846993 89.2721828,76.017529 L96.684069,71.2063835 C100.7301,68.5788404 102.834966,64.8661087 102.458957,61.0196943 C102.125838,57.610072 99.8079483,54.5643237 96.5539669,53.2607392 C93.5823499,52.0704632 90.3837691,52.4443457 87.5569085,54.251921 C87.7899485,51.6876448 88.2238604,49.3985975 88.8514956,47.4555524 C89.9941778,47.3375971 91.1289966,47.114197 92.2434424,46.7864243 C94.5120078,46.2595574 96.6082953,45.4199303 98.5008514,44.306504 C103.66383,47.3912132 115.019168,57.3966801 116.220467,85.9389976 L116.220467,85.9389976 Z M69.6914641,20.5138524 C70.9556702,11.9481546 78.1799092,5.36196092 86.8753024,5.36196092 C96.4585349,5.36196092 104.255366,13.3618308 104.255366,23.1946541 C104.255366,31.1920219 100.420572,37.6377416 94.2371493,40.4743872 L94.2371493,26.3687234 C94.2371493,23.9263343 93.3024875,20.9302702 88.8511382,20.524933 C88.7703605,20.5174268 88.6892254,20.5138524 88.6080904,20.5138524 L69.6914641,20.5138524 Z M73.7407123,28.9648118 C73.7407123,27.9067887 73.8611639,26.873429 74.0981356,25.8754558 L88.4765586,25.8754558 C88.6420456,25.8933279 88.7628546,25.9126296 88.8493511,25.9301442 C88.8632906,26.0295126 88.875443,26.1724887 88.875443,26.3687234 L88.875443,42.051771 C88.2367276,42.1457778 87.5940806,42.1933173 86.951791,42.1936748 C86.9457148,42.1936748 86.9396386,42.1936748 86.9339198,42.1936748 C79.6582118,42.1868834 73.7407123,36.2551627 73.7407123,28.9648118 Z M70.2654859,70.3992835 L76.6147528,69.8856419 C77.1805538,69.8402469 77.7170461,69.6161319 78.1477411,69.2461813 L89.606731,59.3897669 L89.6085181,59.3879797 C90.7165302,58.4332568 91.8992438,57.9435637 93.0508615,57.9435637 C93.5634065,57.9435637 94.0698753,58.0407874 94.5606174,58.2373796 C95.9770858,58.8046372 96.9828748,60.1014304 97.1236996,61.5404848 C97.3006241,63.3516344 96.1075453,65.1874474 93.7653506,66.7087131 L80.9964045,74.9970372 L70.2662008,74.9970372 L70.2662008,70.3992835 L70.2654859,70.3992835 Z M58.9365982,71.3157602 L64.904137,70.8332159 L64.904137,74.9977521 L57.9697682,74.9977521 C57.0708487,74.9977521 56.8517483,74.250702 56.8260138,73.6241092 C56.8113594,73.2688136 56.8449572,71.4873315 58.9365982,71.3157602 Z M52.5919778,69.4649347 C51.7845586,70.7888933 51.4074771,72.3376818 51.4693113,73.8435775 C51.4853954,74.2335448 51.5350772,74.6092145 51.6044173,74.9752333 C51.6044173,74.9827396 51.6001282,74.9902458 51.6015579,74.9973946 L38.6142262,74.9973946 L38.6142262,64.8199989 L52.6023431,69.4442032 C52.598054,69.451352 52.5959095,69.4581433 52.5919778,69.4649347 Z M57.98478,80.3589981 L81.7895268,80.3589981 C82.3074331,80.3589981 82.8146167,80.2088732 83.248886,79.9268529 L84.4623379,79.1390546 C85.0460101,81.7190582 85.7108174,84.2297184 86.4349569,86.6009769 C80.9678107,88.2148195 72.2899313,93.4302299 72.2899313,110.248508 L72.2899313,124.39635 C70.4091701,124.775951 68.1842102,125.653109 66.3231073,127.600801 C64.361211,129.653938 63.2406891,132.435895 62.9719068,135.889483 L57.5640928,135.889483 C52.1148177,120.184274 50.0424777,103.471798 57.98478,80.3589981 L57.98478,80.3589981 Z M62.4032464,148.07891 C61.4124691,145.800228 60.4574341,143.530125 59.5581572,141.251444 L87.3921364,141.251444 C90.9996094,141.251444 92.8285443,139.609006 92.8285443,136.37024 L92.8285443,126.807999 L92.8285443,116.691725 L113.987644,116.691725 C115.468449,116.691725 116.668319,115.491799 116.668319,114.010924 C116.668319,112.530049 115.468449,111.330122 113.987644,111.330122 L92.8478451,111.330122 C92.8821577,109.807426 92.9797343,108.562105 93.2588819,107.826493 C93.3943453,107.468695 93.5115801,107.159867 94.9838065,107.159867 L104.6085,107.149858 C110.636444,107.144139 114.948755,105.685783 117.792057,102.691149 C117.923589,102.552462 118.047972,102.406984 118.172713,102.262221 L135.223947,102.262221 L154.387195,102.262221 L154.387195,109.630136 C154.387195,110.551617 153.610515,111.330122 152.691222,111.330122 L126.004214,111.330122 C124.52341,111.330122 123.32354,112.530049 123.32354,114.010924 C123.32354,115.491799 124.52341,116.691725 126.004214,116.691725 L151.116058,116.691725 C153.234863,120.62464 155.140644,125.518354 155.027341,133.250144 C149.723894,125.882943 141.13823,121.145788 131.394157,121.145788 C123.568732,121.145788 116.225829,124.215485 110.717579,129.789765 C105.829815,134.735666 102.894298,141.154935 102.290253,148.087846 L62.4032464,148.07891 Z M131.728348,167.639111 C123.348202,167.639111 116.280514,161.600874 114.570601,153.450164 L148.886094,153.450164 C147.175824,161.600159 140.108136,167.639111 131.728348,167.639111 L131.728348,167.639111 Z M151.93134,148.08856 L111.52607,148.08856 L107.674834,148.08856 C108.990867,135.96669 119.125961,126.507392 131.394157,126.507392 C142.165107,126.507392 151.210418,133.610086 154.205982,143.553001 C154.215632,143.584456 154.225283,143.615911 154.236005,143.647008 C154.659552,145.073552 154.958715,146.558359 155.120628,148.08856 L151.93134,148.08856 Z M177.639366,92.5441356 C177.639366,94.9464914 175.687477,96.9006172 173.288453,96.9006172 L137.904264,96.9006172 L137.904264,83.0565995 L177.639366,83.0565995 L177.639366,92.5441356 Z M177.639366,77.694996 L137.904264,77.694996 L137.904264,71.9934669 L177.639366,71.9934669 L177.639366,77.694996 Z M177.639366,66.6318634 L137.904264,66.6318634 L137.904264,61.180185 C137.904264,58.7778292 139.856153,56.8237035 142.255178,56.8237035 L173.288453,56.8237035 C175.687477,56.8237035 177.639366,58.7781866 177.639366,61.180185 L177.639366,66.6318634 Z" id="Shape"></path>
            </g>
        </g>
    </g>
</svg>