<?xml version="1.0" encoding="UTF-8"?>
<svg width="267px" height="226px" viewBox="0 0 267 226" version="1.1" xmlns="http://www.w3.org/2000/svg" xmlns:xlink="http://www.w3.org/1999/xlink">
    <!-- Generator: Sketch 58 (84663) - https://sketch.com -->
    <title>7</title>
    <desc>Created with Sketch.</desc>
    <g id="Page-1" stroke="none" stroke-width="1" fill="none" fill-rule="evenodd">
        <g id="7" transform="translate(-6.000000, 0.000000)">
            <path d="M136.058745,222.903715 C194.087831,237.371492 246.854879,177.906611 248.92226,119.082855 C250.989642,60.2590981 200.679022,18.2429352 138.013986,18.4528604 C75.3489491,18.6659535 14.6601407,58.8820332 33.4750533,114.77804 C52.2899659,170.674046 78.0296594,208.435938 136.058745,222.903715 Z" id="Oval" fill="#F8F1F0" transform="translate(139.489153, 121.777781) rotate(-170.000000) translate(-139.489153, -121.777781) "></path>
            <path d="M264.656725,172.181895 C268.988495,172.181895 273,168.553211 273,164.330595 C273,160.10798 268.810136,157 264.478366,157 C260.146597,157 257,160.803611 257,165.026227 C257,169.248842 260.324956,172.181895 264.656725,172.181895 Z" id="Oval-Copy" fill="#F8F1F0" transform="translate(265.000000, 164.590948) rotate(-280.000000) translate(-265.000000, -164.590948) "></path>
            <path d="M21.3563598,221.869954 C29.4784276,221.869954 37,215.096409 37,207.214194 C37,199.331978 32.3683522,189 24.2462843,189 C16.1242165,189 7,200.63049 7,208.512705 C7,216.394921 13.234292,221.869954 21.3563598,221.869954 Z" id="Oval-Copy-3" fill="#F8F1F0" transform="translate(22.000000, 205.434977) rotate(-145.000000) translate(-22.000000, -205.434977) "></path>
            <path d="M30.5279972,45 C36.4841803,45 42,39.9198417 42,34.00818 C42,28.0965183 40.5996797,24 34.6434966,24 C28.6873135,24 20,29.0704021 20,34.9820637 C20,40.8937254 24.5718141,45 30.5279972,45 Z" id="Oval-Copy-2" fill="#F8F1F0" transform="translate(31.000000, 34.500000) rotate(-280.000000) translate(-31.000000, -34.500000) "></path>
            <g id="008-confirm" transform="translate(79.000000, 0.000000)" fill="#F69946" fill-rule="nonzero">
                <path d="M95.4,146 L78.6,146 C75.5116,146 73,148.5415 73,151.666667 L73,157.333333 C73,160.4585 75.5116,163 78.6,163 L95.4,163 C98.4884,163 101,160.4585 101,157.333333 L101,151.666667 C101,148.5415 98.4884,146 95.4,146 Z M78.6,157.333333 L78.6,151.666667 L95.4,151.666667 L95.4056,157.333333 L78.6,157.333333 Z" id="Shape"></path>
                <path d="M56.3333333,146 L50.6666667,146 C47.5415,146 45,148.5415 45,151.666667 L45,157.333333 C45,160.4585 47.5415,163 50.6666667,163 L56.3333333,163 C59.4585,163 62,160.4585 62,157.333333 L62,151.666667 C62,148.5415 59.4585,146 56.3333333,146 Z M50.6666667,157.333333 L50.6666667,151.666667 L56.3333333,151.666667 L56.339,157.333333 L50.6666667,157.333333 Z" id="Shape"></path>
                <path d="M123.333333,146 L117.666667,146 C114.5415,146 112,148.5415 112,151.666667 L112,157.333333 C112,160.4585 114.5415,163 117.666667,163 L123.333333,163 C126.4585,163 129,160.4585 129,157.333333 L129,151.666667 C129,148.5415 126.4585,146 123.333333,146 Z M117.666667,157.333333 L117.666667,151.666667 L123.333333,151.666667 L123.339,157.333333 L117.666667,157.333333 Z" id="Shape"></path>
                <circle id="Oval" cx="87.5" cy="13.5" r="2.5"></circle>
                <path d="M165.581053,50.516129 L140.32421,50.516129 L140.32421,14.0322581 C140.32421,6.29487097 134.029644,0 126.292631,0 L47.7157879,0 C39.9787752,0 33.6842088,6.29487097 33.6842088,14.0322581 L33.6842088,56.1290323 L32.1379288,56.1290323 C29.1211393,56.1290323 26.1015435,56.8390645 23.404674,58.1777419 L10.5770043,64.5483871 L0.13470316,64.5483871 L0,115.064516 L10.2991791,115.064516 L16.2850507,119.554839 C19.6610487,122.089065 23.8452656,123.483871 28.0715772,123.483871 L33.6842088,123.483871 L33.6842088,159.967742 C33.6842088,167.705129 39.9787752,174 47.7157879,174 L126.292631,174 C134.029644,174 140.32421,167.705129 140.32421,159.967742 L140.32421,112.258065 L165.581053,112.258065 C170.222699,112.258065 174,108.480581 174,103.83871 L174,58.9354839 C174,54.2936129 170.222699,50.516129 165.581053,50.516129 Z M140.32421,61.7419355 L140.32421,67.3548387 L134.711578,67.3548387 L134.711578,56.1290323 L151.549473,56.1290323 L151.549473,67.3548387 L145.936842,67.3548387 L145.936842,61.7419355 L140.32421,61.7419355 Z M134.711578,14.0322581 L134.711578,22.4516129 L98.1565086,22.4516129 C99.9385191,20.0998065 101.035789,17.2035484 101.035789,14.0322581 L101.035789,5.61290323 L126.292631,5.61290323 C130.934277,5.61290323 134.711578,9.3903871 134.711578,14.0322581 L134.711578,14.0322581 Z M78.585262,14.0322581 L78.585262,5.61290323 L95.4231569,5.61290323 L95.4231569,14.0322581 C95.4231569,18.674129 91.6458558,22.4516129 87.0042095,22.4516129 C82.3625631,22.4516129 78.585262,18.674129 78.585262,14.0322581 Z M47.7157879,5.61290323 L72.9726304,5.61290323 L72.9726304,14.0322581 C72.9726304,17.2035484 74.0698998,20.0998065 75.8519104,22.4516129 L39.2968405,22.4516129 L39.2968405,14.0322581 C39.2968405,9.3903871 43.0741416,5.61290323 47.7157879,5.61290323 Z M19.6526297,115.064516 L12.1681854,109.451613 L5.62946954,109.451613 L5.73049691,70.1612903 L11.8903601,70.1612903 L25.8994887,63.2040968 C27.8274277,62.2499032 29.9854846,61.7419355 32.1379288,61.7419355 L43.6662742,61.7419355 C46.8233795,61.7419355 49.9860974,60.9926129 52.8120575,59.5809677 L59.3535797,56.3114516 C60.4480428,55.767 61.8652323,56.5640323 61.8652323,58.1300323 C61.862426,66.3136452 55.2058449,72.9677419 47.0282406,72.9677419 L42.2210216,72.9677419 L36.6083899,72.9677419 L36.6083899,78.5806452 L42.2210216,78.5806452 L47.0282406,78.5806452 L98.2294728,78.5806452 C99.7785591,78.5806452 101.035789,79.8379355 101.035789,81.3870968 C101.035789,82.9362581 99.7785591,84.1935484 98.2294728,84.1935484 L64.5536829,84.1935484 L53.3284196,84.1935484 L53.3284196,89.8064516 L64.5536829,89.8064516 C66.1027692,89.8064516 67.3599987,91.0637419 67.3599987,92.6129032 C67.3599987,94.1620645 66.1027692,95.4193548 64.5536829,95.4193548 L53.3284196,95.4193548 L53.3284196,101.032258 L64.5536829,101.032258 C66.1027692,101.032258 67.3599987,102.289548 67.3599987,103.83871 C67.3599987,105.387871 66.1027692,106.645161 64.5536829,106.645161 L58.9410512,106.645161 L53.3284196,106.645161 L53.3284196,112.258065 L58.9410512,112.258065 C60.4901376,112.258065 61.7473671,113.515355 61.7473671,115.064516 C61.7473671,116.613677 60.4901376,117.870968 58.9410512,117.870968 L28.0715772,117.870968 C25.0547877,117.870968 22.063255,116.874677 19.6526297,115.064516 Z M126.292631,168.387097 L47.7157879,168.387097 C43.0741416,168.387097 39.2968405,164.609613 39.2968405,159.967742 L39.2968405,140.322581 L134.711578,140.322581 L134.711578,159.967742 C134.711578,164.609613 130.934277,168.387097 126.292631,168.387097 Z M134.711578,134.709677 L39.2968405,134.709677 L39.2968405,123.483871 L58.9410512,123.483871 C63.5826976,123.483871 67.3599987,119.706387 67.3599987,115.064516 C67.3599987,113.955968 67.1326871,112.903548 66.7426092,111.932516 C70.3206619,110.961484 72.9726304,107.720032 72.9726304,103.83871 C72.9726304,101.674935 72.1279293,99.7188387 70.783704,98.2258065 C72.1307356,96.7327742 72.9726304,94.7766774 72.9726304,92.6129032 C72.9726304,91.6250323 72.7705756,90.6876774 72.4562682,89.8064516 L98.2294728,89.8064516 C102.871119,89.8064516 106.64842,86.0289677 106.64842,81.3870968 C106.64842,76.7452258 102.871119,72.9677419 98.2294728,72.9677419 L61.0233376,72.9677419 C64.9830492,69.2042903 67.4750577,63.8608065 67.477864,57.8634194 C67.477864,53.8137097 64.1804429,50.516129 60.1309291,50.516129 C58.9971776,50.516129 57.8578133,50.7855484 56.8447333,51.2907097 L50.3032111,54.5602258 C48.2517943,55.5873871 45.9590342,56.1290323 43.6690805,56.1290323 L39.2968405,56.1290323 L39.2968405,28.0645161 L134.711578,28.0645161 L134.711578,50.516129 L120.679999,50.516129 C116.038353,50.516129 112.261052,54.2936129 112.261052,58.9354839 L112.261052,103.83871 C112.261052,108.480581 116.038353,112.258065 120.679999,112.258065 L134.711578,112.258065 L134.711578,134.709677 Z M168.387368,103.83871 C168.387368,105.387871 167.130139,106.645161 165.581053,106.645161 L120.679999,106.645161 C119.130913,106.645161 117.873684,105.387871 117.873684,103.83871 L117.873684,58.9354839 C117.873684,57.3863226 119.130913,56.1290323 120.679999,56.1290323 L129.098947,56.1290323 L129.098947,72.9677419 L157.162105,72.9677419 L157.162105,56.1290323 L165.581053,56.1290323 C167.130139,56.1290323 168.387368,57.3863226 168.387368,58.9354839 L168.387368,103.83871 Z" id="Shape"></path>
                <polygon id="Path" points="146 96 151 96 151 101 146 101"></polygon>
                <polygon id="Path" points="158 96 163 96 163 101 158 101"></polygon>
                <path d="M99.3275311,39.8561423 C96.2581764,36.277957 91.7531108,34.0029905 86.7267288,34.0029905 C77.5019379,34.0029905 70,41.6268199 70,51.0014952 C70,60.3761706 77.5019379,68 86.7267288,68 C95.9515197,68 103.453458,60.3761706 103.453458,51.0014952 C103.453458,48.8285197 103.035289,46.7575352 102.302101,44.8452034 L111,36.005981 L107.058068,32 L99.3275311,39.8561423 Z M97.8778813,51.0014952 C97.8778813,57.2512788 92.8765894,62.3338317 86.7267288,62.3338317 C80.5768682,62.3338317 75.5755763,57.2512788 75.5755763,51.0014952 C75.5755763,44.7517117 80.5768682,39.6691587 86.7267288,39.6691587 C90.2198273,39.6691587 93.3003332,41.3406784 95.3465697,43.9017864 L86.7267288,52.6616825 L83.1221187,48.9985048 L79.1801863,53.0044857 L86.7267288,60.6736444 L97.7273407,49.4942945 C97.7942476,49.9929173 97.8778813,50.4858739 97.8778813,51.0014952 Z" id="Shape"></path>
                <polygon id="Path" points="78 112 106 112 106 117 78 117"></polygon>
                <polygon id="Path" points="78 124 106 124 106 129 78 129"></polygon>
            </g>
        </g>
    </g>
</svg>