<?xml version="1.0" encoding="UTF-8"?>
<svg width="1361px" height="460px" viewBox="0 0 1361 460" version="1.1" xmlns="http://www.w3.org/2000/svg" xmlns:xlink="http://www.w3.org/1999/xlink">
    <!-- Generator: Sketch 58 (84663) - https://sketch.com -->
    <title>Group 2 Copy 4</title>
    <desc>Created with Sketch.</desc>
    <g id="Page-1" stroke="none" stroke-width="1" fill="none" fill-rule="evenodd">
        <g id="Group-2-Copy-4" fill-rule="nonzero">
            <g id="berries">
                <path d="M260.875,151.474951 C260.875,215.963957 225.888954,272.274279 173.873321,302.476631 C163.896018,296.682697 154.546704,289.928145 145.949634,282.327175 C109.721043,250.371529 86.875,203.596847 86.875,151.474951 C86.875,86.9859452 121.857688,30.6756232 173.873321,0.476630627 C203.005971,17.3915595 226.78896,42.4918896 242.078984,72.6304234 C254.101449,96.3099807 260.875,123.103147 260.875,151.474951 L260.875,151.474951 Z" id="Path" fill="#A9C623"></path>
                <g id="Group" transform="translate(139.875000, 55.476631)" fill="#8EA914">
                    <path d="M33.625,193.523369 C30.0340006,193.523369 27.125,190.508529 27.125,186.794352 L27.125,7.25238707 C27.125,3.53486402 30.0340006,0.523369373 33.625,0.523369373 C37.2159994,0.523369373 40.125,3.53486402 40.125,7.25238707 L40.125,186.794352 C40.125,190.508529 37.2159994,193.523369 33.625,193.523369 Z" id="Path"></path>
                    <path d="M33.6245856,70.5233694 C31.8580482,70.5233694 30.1611115,69.8061781 28.9116095,68.5307956 L2.07879758,41.1388233 C-0.526265859,38.4831859 -0.526265859,34.1732725 2.07879758,31.5176351 C4.68054605,28.8586141 8.90300229,28.8619969 11.5047508,31.5176351 L33.6245856,54.0956289 L55.7477355,31.5176351 C58.3494848,28.8586141 62.5686261,28.8586141 65.1736886,31.5176351 C67.7754371,34.1732725 67.7754371,38.4831859 65.1736886,41.1388233 L38.3375626,68.527412 C37.0880606,69.8061781 35.394438,70.5233694 33.6245856,70.5233694 Z" id="Path"></path>
                    <path d="M125.125,103.961241 C125.125,164.845928 91.9570868,218.009041 42.6445681,246.523369 C33.1857598,241.053261 24.3223051,234.676224 16.1720019,227.500076 C2.96277938,183.767747 7.98349412,134.822167 34.1154038,93.0019978 C41.9537028,80.4572155 51.199203,69.3267333 61.5303496,59.7025139 C75.1630048,46.9896647 90.6772341,36.861243 107.305763,29.5233694 C118.703453,51.8794657 125.125,77.1751502 125.125,103.961241 L125.125,103.961241 Z" id="Path"></path>
                </g>
                <path d="M153.876787,287.442879 C154.812844,296.25986 156.429976,305.013098 158.718117,313.632134 C216.800664,329.041723 281.277927,313.981056 326.829379,268.433358 C372.380831,222.889014 387.441629,158.40225 372.028551,100.320212 C328.03384,88.6514658 280.361999,94.4556441 240.037708,117.75623 C227.127493,125.214431 214.965454,134.470921 203.917289,145.518989 C165.122899,184.31304 148.441613,236.835816 153.876787,287.442879 Z" id="Path" fill="#A9C623"></path>
                <path d="M204.641353,274.476631 C202.908978,274.476631 201.176604,273.818347 199.857981,272.508464 C197.214006,269.882015 197.214006,265.628236 199.857981,263.001786 L337.327797,126.446468 C339.968407,123.820018 344.253932,123.820018 346.894542,126.446468 C349.535153,129.069576 349.535153,133.323354 346.894542,135.949804 L209.424725,272.508464 C208.102738,273.818347 206.373728,274.476631 204.641353,274.476631 L204.641353,274.476631 Z" id="Path" fill="#8EA914"></path>
                <path d="M274.042969,322.980469 C274.042969,398.652344 212.695312,460 137.023438,460 C61.347656,460 0,398.652344 0,322.980469 C0,247.304688 61.347656,185.957031 137.023438,185.957031 C212.695312,185.957031 274.042969,247.304688 274.042969,322.980469 Z" id="Path" fill="#F69946"></path>
                <path d="M73.109375,322.980469 C73.109375,259.964844 115.648438,206.894531 173.574219,190.898438 C161.9375,187.683594 149.679688,185.957031 137.023438,185.957031 C61.347656,185.957031 0,247.304688 0,322.980469 C0,398.65625 61.347656,460 137.023438,460 C149.679688,460 161.9375,458.277344 173.574219,455.0625 C115.648438,439.0625 73.109375,385.992188 73.109375,322.980469 L73.109375,322.980469 Z" id="Path" fill="#EA8D39"></path>
                <path d="M309.151554,234.476631 L244.60179,234.476631 C240.887345,234.476631 237.875,231.4675 237.875,227.752896 L237.875,163.200365 C237.875,159.485761 240.887345,156.476631 244.60179,156.476631 C248.312891,156.476631 251.325236,159.485761 251.325236,163.200365 L251.325236,221.029161 L309.151554,221.029161 C312.862656,221.029161 315.875,224.038292 315.875,227.752896 C315.875,231.4675 312.862656,234.476631 309.151554,234.476631 L309.151554,234.476631 Z" id="Path" fill="#8EA914"></path>
                <path d="M324.116211,193.476631 L285.63379,193.476631 C281.899819,193.476631 278.875,190.448646 278.875,186.718277 L278.875,148.238344 C278.875,144.504615 281.899819,141.476631 285.63379,141.476631 C289.3644,141.476631 292.392581,144.504615 292.392581,148.238344 L292.392581,179.956563 L324.116211,179.956563 C327.850181,179.956563 330.875,182.984547 330.875,186.718277 C330.875,190.448646 327.850181,193.476631 324.116211,193.476631 L324.116211,193.476631 Z" id="Path" fill="#8EA914"></path>
                <path d="M396.648438,357.070312 C396.648438,413.917969 350.5625,460 293.714844,460 C236.867188,460 190.785156,413.917969 190.785156,357.070312 C190.785156,300.222656 236.867188,254.136719 293.714844,254.136719 C350.5625,254.136719 396.648438,300.222656 396.648438,357.070312 L396.648438,357.070312 Z" id="Path" fill="#F69946"></path>
                <path d="M247.214844,357.070312 C247.214844,310.003906 278.800781,270.320312 321.929688,258.054688 C312.964844,255.503906 303.5,254.136719 293.714844,254.136719 C236.867188,254.136719 190.785156,300.222656 190.785156,357.070312 C190.785156,413.914062 236.867188,460 293.714844,460 C303.5,460 312.964844,458.632812 321.929688,456.085938 C278.800781,443.816406 247.214844,404.132812 247.214844,357.070312 L247.214844,357.070312 Z" id="Path" fill="#EA8D39"></path>
                <path d="M97.027344,269.996094 C97.027344,284.746094 85.070312,296.707031 70.316406,296.707031 C55.566406,296.707031 43.609375,284.746094 43.609375,269.996094 C43.609375,255.246094 55.566406,243.285156 70.316406,243.285156 C85.070312,243.285156 97.027344,255.246094 97.027344,269.996094 Z" id="Path" fill="#BB6F2A"></path>
                <path d="M354.171875,340.699219 C354.171875,351.109375 345.730469,359.550781 335.316406,359.550781 C324.90625,359.550781 316.464844,351.109375 316.464844,340.699219 C316.464844,330.285156 324.90625,321.84375 335.316406,321.84375 C345.730469,321.84375 354.171875,330.285156 354.171875,340.699219 L354.171875,340.699219 Z" id="Path" fill="#BB6F2A"></path>
            </g>
            <g id="Group-3" transform="translate(506.000000, 62.000000)" fill="#FFFFFF" stroke="#FFFFFF">
                <path d="M16.4453125,202 C10.0650723,202 6.875,198.582065 6.875,191.746094 L6.875,16.1992188 C6.875,9.36324707 10.0650723,5.9453125 16.4453125,5.9453125 L124.589844,5.9453125 C131.425815,5.9453125 134.84375,8.90752246 134.84375,14.8320312 L134.84375,30.9648438 C134.84375,36.8893525 131.425815,39.8515625 124.589844,39.8515625 L46.796875,39.8515625 L46.796875,87.4296875 L113.378906,87.4296875 C120.214878,87.4296875 123.632812,90.3918975 123.632812,96.3164062 L123.632812,112.449219 C123.632812,118.373728 120.214878,121.335938 113.378906,121.335938 L46.796875,121.335938 L46.796875,191.746094 C46.796875,198.582065 43.6068027,202 37.2265625,202 L16.4453125,202 Z M172.578125,202 C167.109348,202 164.375,199.265652 164.375,193.796875 L164.375,66.6484375 C164.375,61.1796602 167.109348,58.4453125 172.578125,58.4453125 L194.179688,58.4453125 C199.648465,58.4453125 202.382812,61.1796602 202.382812,66.6484375 L202.382812,77.859375 L202.929688,77.859375 C205.299491,72.0260125 209.264295,66.8763244 214.824219,62.4101562 C220.384142,57.9439881 226.946577,55.7109375 234.511719,55.7109375 C239.707057,55.7109375 243.990869,56.348952 247.363281,57.625 C250.553401,58.8099018 251.783858,60.9973799 251.054688,64.1875 L247.226562,80.4570312 C246.406246,84.1028828 243.945333,85.1966219 239.84375,83.7382812 C237.473946,82.9179646 235.195323,82.5078125 233.007812,82.5078125 C224.257769,82.5078125 217.011747,87.7486455 211.269531,98.2304688 C205.527315,108.712292 202.65625,123.979066 202.65625,144.03125 L202.65625,193.796875 C202.65625,199.265652 199.921902,202 194.453125,202 L172.578125,202 Z M264.179688,130.222656 C264.179688,107.162645 269.944604,88.9792332 281.474609,75.671875 C293.004615,62.3645168 309.29677,55.7109375 330.351562,55.7109375 C354.778768,55.7109375 372.916607,61.9999371 384.765625,74.578125 C396.614643,87.1563129 402.539062,107.390486 402.539062,135.28125 C402.539062,140.750027 399.987005,143.484375 394.882812,143.484375 L304.648438,143.484375 L304.780993,144.785923 C306.325327,159.162103 310.018087,168.252906 315.859375,172.058594 C321.87503,175.977884 328.847617,177.9375 336.777344,177.9375 C344.342486,177.9375 350.130188,176.934906 354.140625,174.929688 C358.151062,172.924469 361.523424,170.190121 364.257812,166.726562 C367.356786,162.716126 371.184873,162.078111 375.742188,164.8125 L389.414062,173.152344 C394.791694,176.43361 395.566425,180.352842 391.738281,184.910156 C386.178358,191.563835 379.661496,196.531234 372.1875,199.8125 C364.713504,203.093766 352.910237,204.734375 336.777344,204.734375 C310.618359,204.734375 291.979222,198.080796 280.859375,184.773438 C269.739528,171.466079 264.179688,153.282667 264.179688,130.222656 Z M304.785156,116.140625 L364.257812,116.140625 C364.257812,106.296826 361.7969,98.2532864 356.875,92.0097656 C351.9531,85.7662448 344.114637,82.6445312 333.359375,82.6445312 C324.791624,82.6445312 318.001327,85.6295274 312.988281,91.5996094 C307.975235,97.5696913 305.240888,105.749948 304.785156,116.140625 Z M429.472656,192.429688 C425.006488,189.239567 423.776032,185.821633 425.78125,182.175781 L432.753906,169.460938 C435.170911,164.985004 438.906661,164.377563 443.961268,167.638601 L444.238281,167.820312 C449.43362,171.283871 455.563116,173.835929 462.626953,175.476562 C469.690791,177.117196 476.139294,177.9375 481.972656,177.9375 C486.074239,177.9375 489.902326,177.527348 493.457031,176.707031 C497.011737,175.886715 500.019519,174.291679 502.480469,171.921875 C504.941419,169.552071 506.171875,166.088564 506.171875,161.53125 C506.171875,158.796861 505.442716,156.472666 503.984375,154.558594 C502.526034,152.644522 500.657563,151.186203 498.378906,150.183594 C496.100249,149.180985 493.684909,148.36068 491.132812,147.722656 L490.076657,147.460156 C486.774894,146.623436 482.273466,145.343759 476.572266,143.621094 C470.237599,141.707022 464.153675,139.473971 458.320312,136.921875 C453.489559,134.82551 448.772809,131.886087 444.169922,128.103516 C439.567034,124.320945 436.194672,120.105492 434.052734,115.457031 C431.910797,110.808571 430.839844,105.06644 430.839844,98.2304688 C430.839844,89.0246936 433.505833,80.958368 438.837891,74.03125 C444.169949,67.104132 451.074176,62.3190236 459.550781,59.6757812 C468.027386,57.0325389 478.600197,55.7109375 491.269531,55.7109375 C499.837282,55.7109375 508.177043,56.9413939 516.289062,59.4023438 L517.550592,59.7897783 C525.003876,62.1075671 530.371077,64.3026212 533.652344,66.375 C539.021689,69.7755852 540.437224,73.395772 537.898987,77.2356653 L529.414062,89.6171875 C526.910119,93.1942494 522.914668,93.524955 517.427592,90.6093119 L517.109375,90.4375 C512.825499,88.0676965 508.610047,86.1536531 504.462891,84.6953125 C500.315734,83.2369719 495.69013,82.5078125 490.585938,82.5078125 C487.122379,82.5078125 483.795589,82.8723922 480.605469,83.6015625 C477.415349,84.3307328 474.703787,85.6979066 472.470703,87.703125 C470.237619,89.7083434 469.121094,92.3515461 469.121094,95.6328125 C469.121094,99.0963715 470.146474,101.807933 472.197266,103.767578 C474.248057,105.727223 476.617825,107.162756 479.306641,108.074219 L483.804408,109.592076 C484.900945,109.960378 485.976557,110.320311 487.03125,110.671875 C492.135442,112.312508 497.28513,113.884758 502.480469,115.388672 C507.675807,116.892586 512.962213,118.692698 518.339844,120.789062 C522.988304,122.611988 527.499978,125.209619 531.875,128.582031 C536.250022,131.954444 539.440094,136.238255 541.445312,141.433594 C543.450531,146.628932 544.453125,152.553352 544.453125,159.207031 C544.453125,168.048221 541.809922,176.251264 536.523438,183.816406 C531.236953,191.381548 524.264366,196.759099 515.605469,199.949219 C506.946571,203.139339 496.875057,204.734375 485.390625,204.734375 C472.538998,204.734375 461.601608,203.822926 452.578125,202 C443.554642,200.177074 435.852896,196.987002 429.472656,192.429688 Z M577.949219,202 C572.480441,202 569.746094,199.265652 569.746094,193.796875 L569.746094,8.40625 C569.746094,2.93747266 572.480441,0.203125 577.949219,0.203125 L599.824219,0.203125 C605.292996,0.203125 608.027344,2.93747266 608.027344,8.40625 L608.027344,63.640625 C608.027344,67.2864766 607.845054,70.9322734 607.480469,74.578125 L608.300781,74.578125 C612.493511,67.3775682 617.825488,62.4329562 624.296875,59.7441406 C630.768262,57.0553251 638.561152,55.7109375 647.675781,55.7109375 C661.894602,55.7109375 673.652297,60.1770387 682.949219,69.109375 C692.24614,78.0417113 696.894531,94.3566523 696.894531,118.054688 L696.894531,193.796875 C696.894531,199.265652 694.160184,202 688.691406,202 L666.816406,202 C661.347629,202 658.613281,199.265652 658.613281,193.796875 L658.613281,127.898437 C658.613281,108.028546 657.246107,95.4961197 654.511719,90.3007812 C651.77733,85.1054428 645.898483,82.5078125 636.875,82.5078125 C627.30464,82.5078125 620.104191,86.2219681 615.273438,93.6503906 C610.496962,100.995348 608.081926,116.159443 608.028259,139.143124 L608.027344,193.796875 C608.027344,199.265652 605.292996,202 599.824219,202 L577.949219,202 Z M724.921875,69.109375 C722.460925,61.9999645 723.964816,58.4453125 729.433594,58.4453125 L753.90625,58.4453125 C758.098979,58.4453125 760.833327,60.769508 762.109375,65.4179688 L782.753906,141.84375 C783.712924,145.243903 784.567688,149.582162 785.318222,154.858648 L785.677276,157.478185 C786.280449,162.003163 786.582031,164.949212 786.582031,166.316406 L787.402344,166.316406 L787.946119,163.884924 C788.635314,160.761495 789.181151,158.112252 789.583641,155.937156 L789.86879,154.35535 C790.424423,151.37945 791.789762,145.932923 793.964844,138.015625 L813.515625,65.4179688 C814.791673,60.769508 817.526021,58.4453125 821.71875,58.4453125 L846.191406,58.4453125 C851.569037,58.4453125 853.072929,61.9999645 850.703125,69.109375 L804.628906,207.742188 C799.251275,223.966227 792.643268,236.635371 784.804688,245.75 C776.966107,254.864629 766.074288,259.421875 752.128906,259.421875 C744.472618,259.421875 737.636749,258.783861 731.621094,257.507812 C728.238083,256.7956 726.898562,254.518209 727.602494,250.675573 L730.664062,235.359375 C731.484379,231.440085 733.808575,230.072911 737.636719,231.257812 C740.462254,232.169275 743.105456,232.625 745.566406,232.625 C752.949256,232.625 758.577455,229.115921 762.451172,222.097656 C766.324889,215.079392 768.899733,209.063827 770.175781,204.050781 L770.585938,202 L724.921875,69.109375 Z" id="Freshy" stroke-width="5"></path>
                <path d="M0.099609375,317.495117 C0.099609375,311.879855 1.5481626,307.420264 4.4453125,304.116211 C7.3424624,300.812158 11.4765356,299.160156 16.8476562,299.160156 C22.2187769,299.160156 26.3528501,300.812158 29.25,304.116211 C32.1471499,307.420264 33.5957031,311.879855 33.5957031,317.495117 C33.5957031,323.11038 32.1471499,327.56997 29.25,330.874023 C26.3528501,334.178076 22.2187769,335.830078 16.8476562,335.830078 C11.4765356,335.830078 7.3424624,334.178076 4.4453125,330.874023 C1.5481626,327.56997 0.099609375,323.11038 0.099609375,317.495117 Z M7.71679688,317.495117 C7.71679688,321.564148 8.44514246,324.67691 9.90185547,326.833496 C11.3585685,328.990082 13.6738123,330.068359 16.8476562,330.068359 C20.0215002,330.068359 22.336744,328.990082 23.793457,326.833496 C25.25017,324.67691 25.9785156,321.564148 25.9785156,317.495117 C25.9785156,313.426086 25.25017,310.313325 23.793457,308.156738 C22.336744,306.000152 20.0215002,304.921875 16.8476562,304.921875 C13.6738123,304.921875 11.3585685,306.000152 9.90185547,308.156738 C8.44514246,310.313325 7.71679688,313.426086 7.71679688,317.495117 Z M53.2807854,335 C52.1414568,335 51.5718011,334.389655 51.5718011,333.168945 L51.5718011,301.821289 C51.5718011,300.60058 52.1414568,299.990234 53.2807854,299.990234 L56.8940667,299.990234 C58.2938133,299.990234 59.3517454,300.55989 60.0678948,301.699219 L72.5190667,321.694336 L72.6899651,321.694336 C72.6085845,320.717769 72.5678948,319.741216 72.5678948,318.764648 L72.5678948,301.821289 C72.5678948,300.60058 73.1375506,299.990234 74.2768792,299.990234 L77.9878167,299.990234 C79.1271453,299.990234 79.6968011,300.60058 79.6968011,301.821289 L79.6968011,333.168945 C79.6968011,334.389655 79.1271453,335 77.9878167,335 L74.6186761,335 C73.2189295,335 72.1609974,334.430344 71.4448479,333.291016 L58.7495354,312.929688 L58.578637,312.929688 C58.6600176,313.906255 58.7007073,314.882808 58.7007073,315.859375 L58.7007073,333.168945 C58.7007073,334.389655 58.1310516,335 56.9917229,335 L53.2807854,335 Z M101.188524,335 C100.049195,335 99.4795396,334.389655 99.4795396,333.168945 L99.4795396,301.821289 C99.4795396,300.60058 100.049195,299.990234 101.188524,299.990234 L105.143602,299.990234 C106.12017,299.990234 106.608446,300.60058 106.608446,301.821289 L106.608446,328.945312 L120.841844,328.945312 C122.062554,328.945312 122.672899,329.474279 122.672899,330.532227 L122.672899,333.413086 C122.672899,334.471034 122.062554,335 120.841844,335 L101.188524,335 Z M141.527903,335 C140.388575,335 139.818919,334.389655 139.818919,333.168945 L139.818919,301.821289 C139.818919,300.60058 140.388575,299.990234 141.527903,299.990234 L145.238841,299.990234 C146.378169,299.990234 146.947825,300.60058 146.947825,301.821289 L146.947825,333.168945 C146.947825,334.389655 146.378169,335 145.238841,335 L141.527903,335 Z M168.439548,335 C167.300219,335 166.730564,334.389655 166.730564,333.168945 L166.730564,301.821289 C166.730564,300.60058 167.300219,299.990234 168.439548,299.990234 L172.052829,299.990234 C173.452576,299.990234 174.510508,300.55989 175.226657,301.699219 L187.677829,321.694336 L187.848728,321.694336 C187.767347,320.717769 187.726657,319.741216 187.726657,318.764648 L187.726657,301.821289 C187.726657,300.60058 188.296313,299.990234 189.435642,299.990234 L193.146579,299.990234 C194.285908,299.990234 194.855564,300.60058 194.855564,301.821289 L194.855564,333.168945 C194.855564,334.389655 194.285908,335 193.146579,335 L189.777439,335 C188.377692,335 187.31976,334.430344 186.603611,333.291016 L173.908298,312.929688 L173.7374,312.929688 C173.81878,313.906255 173.85947,314.882808 173.85947,315.859375 L173.85947,333.168945 C173.85947,334.389655 173.289814,335 172.150486,335 L168.439548,335 Z M216.347287,335 C215.207958,335 214.638302,334.389655 214.638302,333.168945 L214.638302,301.821289 C214.638302,300.60058 215.207958,299.990234 216.347287,299.990234 L237.294552,299.990234 C238.515261,299.990234 239.125607,300.5192 239.125607,301.577148 L239.125607,304.458008 C239.125607,305.515956 238.515261,306.044922 237.294552,306.044922 L221.767208,306.044922 L221.767208,313.808594 L236.000607,313.808594 C237.221316,313.808594 237.831662,314.33756 237.831662,315.395508 L237.831662,318.276367 C237.831662,319.334315 237.221316,319.863281 236.000607,319.863281 L221.767208,319.863281 L221.767208,328.945312 L238.075802,328.945312 C239.296511,328.945312 239.906857,329.474279 239.906857,330.532227 L239.906857,333.413086 C239.906857,334.471034 239.296511,335 238.075802,335 L216.347287,335 Z M285.111983,317.495117 C285.111983,311.879855 286.576812,307.420264 289.506514,304.116211 C292.436216,300.812158 296.586565,299.160156 301.957686,299.160156 C305.196634,299.160156 307.73974,299.575191 309.58708,300.405273 C311.43442,301.235356 313.057939,302.52115 314.457686,304.262695 C315.304044,305.320643 315.27963,306.142575 314.384443,306.728516 L311.60124,308.535156 C310.830266,309.043999 310.008176,308.858969 309.134947,307.980058 L308.988936,307.827148 C308.223958,306.997066 307.255543,306.305341 306.083662,305.751953 C304.911781,305.198565 303.617849,304.921875 302.201826,304.921875 C298.78384,304.921875 296.350597,306.000152 294.902022,308.156738 C293.453447,310.313325 292.72917,313.426086 292.72917,317.495117 C292.72917,321.564148 293.453447,324.67691 294.902022,326.833496 C296.350597,328.990082 298.78384,330.068359 302.201826,330.068359 C303.861991,330.068359 305.294268,329.901532 306.498701,329.567871 C307.703134,329.234211 308.842446,328.627934 309.91667,327.749023 L309.91667,323.378906 L304.618818,323.378906 C303.398109,323.378906 302.787764,322.84994 302.787764,321.791992 L302.787764,318.911133 C302.787764,317.853185 303.398109,317.324219 304.618818,317.324219 L315.214522,317.324219 C316.435231,317.324219 317.045576,317.853185 317.045576,318.911133 L317.045576,331.313477 C314.766919,332.989917 312.467951,334.161781 310.148604,334.829102 C307.829256,335.496423 305.098977,335.830078 301.957686,335.830078 C296.667946,335.830078 292.537941,334.178076 289.567549,330.874023 C286.597156,327.56997 285.111983,323.11038 285.111983,317.495117 Z M337.365424,335 C336.226096,335 335.65644,334.389655 335.65644,333.168945 L335.65644,301.821289 C335.65644,300.60058 336.226096,299.990234 337.365424,299.990234 L348.669135,299.990234 C353.698457,299.990234 357.368668,300.767408 359.679877,302.321777 C361.991087,303.876147 363.146674,306.402977 363.146674,309.902344 C363.146674,312.506523 362.210811,314.581698 360.339057,316.12793 C358.467303,317.674161 356.091025,318.699542 353.210151,319.204102 L353.210151,319.25293 C354.772659,319.83887 355.95266,320.652664 356.75019,321.694336 C357.54772,322.736008 358.198755,323.647457 358.703315,324.428711 L364.074409,332.900391 C364.969595,334.300137 364.660354,335 363.146674,335 L358.898627,335 C358.003441,335 357.271026,334.519862 356.701362,333.55957 L351.769721,325.332031 C351.232609,324.453121 350.251987,323.488775 348.827827,322.438965 C347.403666,321.389155 345.991733,320.864258 344.591987,320.864258 L342.785346,320.864258 L342.785346,333.168945 C342.785346,334.389655 342.21569,335 341.076362,335 L337.365424,335 Z M342.785346,314.80957 L347.155463,314.80957 C350.410688,314.80957 352.725932,314.439294 354.101264,313.69873 C355.476596,312.958167 356.164252,311.782235 356.164252,310.170898 C356.164252,308.413077 355.50101,307.269697 354.174506,306.740723 C352.848002,306.211749 350.898966,305.947266 348.327338,305.947266 L342.785346,305.947266 L342.785346,314.80957 Z M380.683319,317.495117 C380.683319,311.879855 382.131872,307.420264 385.029022,304.116211 C387.926172,300.812158 392.060245,299.160156 397.431366,299.160156 C402.802486,299.160156 406.93656,300.812158 409.83371,304.116211 C412.73086,307.420264 414.179413,311.879855 414.179413,317.495117 C414.179413,323.11038 412.73086,327.56997 409.83371,330.874023 C406.93656,334.178076 402.802486,335.830078 397.431366,335.830078 C392.060245,335.830078 387.926172,334.178076 385.029022,330.874023 C382.131872,327.56997 380.683319,323.11038 380.683319,317.495117 Z M388.300507,317.495117 C388.300507,321.564148 389.028852,324.67691 390.485565,326.833496 C391.942278,328.990082 394.257522,330.068359 397.431366,330.068359 C400.60521,330.068359 402.920454,328.990082 404.377167,326.833496 C405.83388,324.67691 406.562225,321.564148 406.562225,317.495117 C406.562225,313.426086 405.83388,310.313325 404.377167,308.156738 C402.920454,306.000152 400.60521,304.921875 397.431366,304.921875 C394.257522,304.921875 391.942278,306.000152 390.485565,308.156738 C389.028852,310.313325 388.300507,313.426086 388.300507,317.495117 Z M430.34887,317.495117 C430.34887,311.879855 431.773009,307.420264 434.621331,304.116211 C437.469653,300.812158 441.579312,299.160156 446.950433,299.160156 C450.042896,299.160156 452.663312,299.640295 454.811761,300.600586 C456.960209,301.560877 458.473866,302.952465 459.352776,304.775391 C459.938717,305.979824 459.841061,306.793618 459.059808,307.216797 L456.13012,308.779297 C455.104724,309.332685 454.258379,309.023443 453.591058,307.851562 C453.167878,307.102861 452.382567,306.427412 451.235101,305.825195 C450.087634,305.222979 448.740805,304.921875 447.194573,304.921875 C443.776587,304.921875 441.384033,306.000152 440.016839,308.156738 C438.649645,310.313325 437.966058,313.426086 437.966058,317.495117 C437.966058,321.564148 438.649645,324.67691 440.016839,326.833496 C441.384033,328.990082 443.776587,330.068359 447.194573,330.068359 C449.033775,330.068359 450.584053,329.653324 451.845452,328.823242 C453.009821,328.057012 453.844804,327.325464 454.350421,326.628578 L454.469964,326.455078 C455.267494,325.234369 456.11384,324.925127 457.009026,325.527344 L459.938714,327.480469 C460.736244,328.017581 460.817623,328.831375 460.182854,329.921875 C459.238839,331.549487 457.619389,332.941075 455.324456,334.09668 C453.029523,335.252284 450.238209,335.830078 446.950433,335.830078 C441.660693,335.830078 437.571378,334.178076 434.682366,330.874023 C431.793354,327.56997 430.34887,323.11038 430.34887,317.495117 Z M480.453874,335 C479.314546,335 478.74489,334.389655 478.74489,333.168945 L478.74489,301.821289 C478.74489,300.60058 479.314546,299.990234 480.453874,299.990234 L501.40114,299.990234 C502.621849,299.990234 503.232195,300.5192 503.232195,301.577148 L503.232195,304.458008 C503.232195,305.515956 502.621849,306.044922 501.40114,306.044922 L485.873796,306.044922 L485.873796,313.808594 L500.107195,313.808594 C501.327904,313.808594 501.938249,314.33756 501.938249,315.395508 L501.938249,318.276367 C501.938249,319.334315 501.327904,319.863281 500.107195,319.863281 L485.873796,319.863281 L485.873796,328.945312 L502.18239,328.945312 C503.403099,328.945312 504.013445,329.474279 504.013445,330.532227 L504.013445,333.413086 C504.013445,334.471034 503.403099,335 502.18239,335 L480.453874,335 Z M523.674113,335 C522.534784,335 521.965128,334.389655 521.965128,333.168945 L521.965128,301.821289 C521.965128,300.60058 522.534784,299.990234 523.674113,299.990234 L534.977824,299.990234 C540.007146,299.990234 543.677357,300.767408 545.988566,302.321777 C548.299775,303.876147 549.455363,306.402977 549.455363,309.902344 C549.455363,312.506523 548.5195,314.581698 546.647746,316.12793 C544.775992,317.674161 542.399713,318.699542 539.518839,319.204102 L539.518839,319.25293 C541.081347,319.83887 542.261348,320.652664 543.058878,321.694336 C543.856409,322.736008 544.507444,323.647457 545.012003,324.428711 L550.383097,332.900391 C551.278284,334.300137 550.969042,335 549.455363,335 L545.207316,335 C544.312129,335 543.579715,334.519862 543.01005,333.55957 L538.07841,325.332031 C537.541298,324.453121 536.560676,323.488775 535.136515,322.438965 C533.712354,321.389155 532.300422,320.864258 530.900675,320.864258 L529.094035,320.864258 L529.094035,333.168945 C529.094035,334.389655 528.524379,335 527.38505,335 L523.674113,335 Z M529.094035,314.80957 L533.464152,314.80957 C536.719377,314.80957 539.03462,314.439294 540.409953,313.69873 C541.785285,312.958167 542.472941,311.782235 542.472941,310.170898 C542.472941,308.413077 541.809699,307.269697 540.483195,306.740723 C539.156691,306.211749 537.207654,305.947266 534.636027,305.947266 L529.094035,305.947266 L529.094035,314.80957 Z M567.382633,302.089844 C566.55255,300.690097 566.935034,299.990234 568.530094,299.990234 L572.802555,299.990234 C573.648913,299.990234 574.397603,300.551752 575.048648,301.674805 L580.857286,311.795766 C581.045732,312.129552 581.274233,312.536008 581.542789,313.015137 C582.258938,314.292812 582.673973,315.533848 582.787906,316.738281 L582.885562,316.738281 C582.999495,315.533848 583.41453,314.292812 584.13068,313.015137 L585.424625,310.732422 L585.424625,310.732422 L590.62482,301.674805 C591.275865,300.551752 592.024556,299.990234 592.870914,299.990234 L597.143375,299.990234 C598.738435,299.990234 599.120918,300.690097 598.290836,302.089844 L586.401187,322.182617 L586.401187,333.657227 C586.401187,334.552413 585.831532,335 584.692203,335 L580.981265,335 C579.841937,335 579.272281,334.552413 579.272281,333.657227 L579.272281,322.182617 L567.382633,302.089844 Z M643.642446,332.387695 C642.633326,331.622718 642.389188,330.849613 642.910024,330.068359 L644.789907,327.236328 C645.380286,326.350759 646.23018,326.266016 647.339612,326.982099 L647.499868,327.089844 C648.411331,327.724613 649.603539,328.379717 651.076528,329.055176 C652.549517,329.730635 654.099794,330.068359 655.727407,330.068359 C656.866735,330.068359 657.965357,329.938152 659.023305,329.677734 C660.081253,329.417316 660.886909,328.912764 661.440297,328.164062 C661.993686,327.415361 662.270375,326.528325 662.270375,325.50293 C662.270375,324.770504 662.148306,324.127607 661.904165,323.574219 C661.660023,323.020831 661.261264,322.565106 660.707875,322.207031 C660.154487,321.848957 659.584832,321.547853 658.998891,321.303711 C657.973495,320.880532 656.683632,320.461428 655.129262,320.046387 C653.574892,319.631346 652.040891,319.130862 650.527211,318.544922 C649.176293,318.024086 647.939326,317.307947 646.816274,316.396484 C645.693221,315.485021 644.822462,314.459641 644.203969,313.320312 C643.585477,312.180984 643.276235,310.659189 643.276235,308.754883 C643.276235,306.492502 644.008649,304.555672 645.4735,302.944336 C646.938352,301.333 648.622905,300.299481 650.527211,299.84375 C652.431518,299.388019 654.352071,299.160156 656.28893,299.160156 C658.209513,299.160156 660.191101,299.453122 662.233754,300.039062 C664.276408,300.625003 665.818547,301.357417 666.860219,302.236328 C667.885615,303.098963 668.137891,303.880205 667.617055,304.580078 L665.639516,307.241211 C665.005561,308.107101 664.165969,308.216496 663.120718,307.569398 L662.953969,307.460938 C662.23782,306.972654 661.257198,306.427412 660.012075,305.825195 C658.766951,305.222979 657.46895,304.921875 656.118032,304.921875 C655.15774,304.921875 654.274774,305.003254 653.469106,305.166016 C652.663438,305.328777 651.951368,305.719398 651.332875,306.337891 C650.714383,306.956383 650.405141,307.72135 650.405141,308.632812 C650.405141,309.511723 650.633003,310.223793 651.088735,310.769043 C651.544466,311.314293 652.049019,311.72119 652.602407,311.989746 C653.155795,312.258302 653.717313,312.482095 654.286977,312.661133 L657.553035,313.708225 C658.055783,313.867368 658.537734,314.018825 658.998891,314.162598 C660.382362,314.593915 661.660018,315.069984 662.831899,315.59082 C664.459511,316.323246 665.704616,317.05566 666.56725,317.788086 C667.429885,318.520511 668.141955,319.521478 668.703481,320.791016 C669.265007,322.060553 669.545766,323.57421 669.545766,325.332031 C669.545766,327.936211 668.715696,330.088696 667.055532,331.789551 C665.395367,333.490406 663.552124,334.589027 661.525747,335.085449 C659.499369,335.581871 657.525919,335.830078 655.605336,335.830078 C652.773291,335.830078 650.470254,335.557457 648.696157,335.012207 C646.922059,334.466957 645.237506,333.592128 643.642446,332.387695 Z M685.886122,306.240234 C684.665413,306.240234 684.055067,305.711268 684.055067,304.65332 L684.055067,301.577148 C684.055067,300.5192 684.665413,299.990234 685.886122,299.990234 L710.983778,299.990234 C712.204487,299.990234 712.814833,300.5192 712.814833,301.577148 L712.814833,304.65332 C712.814833,305.711268 712.204487,306.240234 710.983778,306.240234 L701.999403,306.240234 L701.999403,333.657227 C701.999403,334.552413 701.592506,335 700.7787,335 L696.0912,335 C695.277394,335 694.870497,334.552413 694.870497,333.657227 L694.870497,306.240234 L685.886122,306.240234 Z M727.714759,317.495117 C727.714759,311.879855 729.163312,307.420264 732.060462,304.116211 C734.957612,300.812158 739.091685,299.160156 744.462806,299.160156 C749.833926,299.160156 753.968,300.812158 756.865149,304.116211 C759.762299,307.420264 761.210853,311.879855 761.210853,317.495117 C761.210853,323.11038 759.762299,327.56997 756.865149,330.874023 C753.968,334.178076 749.833926,335.830078 744.462806,335.830078 C739.091685,335.830078 734.957612,334.178076 732.060462,330.874023 C729.163312,327.56997 727.714759,323.11038 727.714759,317.495117 Z M735.331946,317.495117 C735.331946,321.564148 736.060292,324.67691 737.517005,326.833496 C738.973718,328.990082 741.288962,330.068359 744.462806,330.068359 C747.63665,330.068359 749.951893,328.990082 751.408606,326.833496 C752.86532,324.67691 753.593665,321.564148 753.593665,317.495117 C753.593665,313.426086 752.86532,310.313325 751.408606,308.156738 C749.951893,306.000152 747.63665,304.921875 744.462806,304.921875 C741.288962,304.921875 738.973718,306.000152 737.517005,308.156738 C736.060292,310.313325 735.331946,313.426086 735.331946,317.495117 Z M780.895935,335 C779.756606,335 779.186951,334.389655 779.186951,333.168945 L779.186951,301.821289 C779.186951,300.60058 779.756606,299.990234 780.895935,299.990234 L792.199646,299.990234 C797.228968,299.990234 800.899179,300.767408 803.210388,302.321777 C805.521598,303.876147 806.677185,306.402977 806.677185,309.902344 C806.677185,312.506523 805.741322,314.581698 803.869568,316.12793 C801.997814,317.674161 799.621535,318.699542 796.740661,319.204102 L796.740661,319.25293 C798.303169,319.83887 799.483171,320.652664 800.280701,321.694336 C801.078231,322.736008 801.729266,323.647457 802.233826,324.428711 L807.604919,332.900391 C808.500106,334.300137 808.190864,335 806.677185,335 L802.429138,335 C801.533951,335 800.801537,334.519862 800.231872,333.55957 L795.300232,325.332031 C794.76312,324.453121 793.782498,323.488775 792.358337,322.438965 C790.934176,321.389155 789.522244,320.864258 788.122497,320.864258 L786.315857,320.864258 L786.315857,333.168945 C786.315857,334.389655 785.746201,335 784.606872,335 L780.895935,335 Z M786.315857,314.80957 L790.685974,314.80957 C793.941199,314.80957 796.256442,314.439294 797.631775,313.69873 C799.007107,312.958167 799.694763,311.782235 799.694763,310.170898 C799.694763,308.413077 799.031521,307.269697 797.705017,306.740723 C796.378513,306.211749 794.429476,305.947266 791.857849,305.947266 L786.315857,305.947266 L786.315857,314.80957 Z M827.729455,335 C826.590126,335 826.02047,334.389655 826.02047,333.168945 L826.02047,301.821289 C826.02047,300.60058 826.590126,299.990234 827.729455,299.990234 L848.67672,299.990234 C849.89743,299.990234 850.507775,300.5192 850.507775,301.577148 L850.507775,304.458008 C850.507775,305.515956 849.89743,306.044922 848.67672,306.044922 L833.149377,306.044922 L833.149377,313.808594 L847.382775,313.808594 C848.603484,313.808594 849.21383,314.33756 849.21383,315.395508 L849.21383,318.276367 C849.21383,319.334315 848.603484,319.863281 847.382775,319.863281 L833.149377,319.863281 L833.149377,328.945312 L849.45797,328.945312 C850.67868,328.945312 851.289025,329.474279 851.289025,330.532227 L851.289025,333.413086 C851.289025,334.471034 850.67868,335 849.45797,335 L827.729455,335 Z" id="ONLINEGROCERYSTORE"></path>
            </g>
        </g>
    </g>
</svg>